<?xml version="1.0" encoding="UTF-8"?>
<svg version="1.1" xmlns="http://www.w3.org/2000/svg" width="512" height="512">
<path d="M0 0 C1.37816262 0.70493628 2.73757859 1.44946854 4.0625 2.25 C5.609375 3.0853125 5.609375 3.0853125 7.1875 3.9375 C15.88505693 10.93336101 20.70944691 18.07229145 22.0625 29.25 C22.07760588 32.69588245 21.90393857 36.12590743 21.72265625 39.56640625 C21.64991234 41.07383141 21.64991234 41.07383141 21.57569885 42.61170959 C21.00154249 54.14403428 20.25776414 65.6660612 19.5 77.1875 C19.35980287 79.34699073 19.21982806 81.50649591 19.08007812 83.66601562 C18.74343151 88.86084611 18.4038352 94.05547557 18.0625 99.25 C20.11482166 93.87539447 22.16566588 88.50022775 24.21563721 83.12472534 C25.31244684 80.25013933 26.41082681 77.37615658 27.50927734 74.50219727 C30.91928286 65.57049852 34.30861196 56.63368081 37.5859375 47.65234375 C38.1193464 46.19852377 38.65287151 44.74474642 39.18652344 43.29101562 C39.92941199 41.26651072 40.66836524 39.24107733 41.39367676 37.21020508 C45.66258805 25.25725347 50.81461257 14.2624464 62.43359375 7.96484375 C72.50537154 3.35067954 84.3617888 2.28652065 95 5.8125 C104.81959776 10.01458012 112.88956791 17.32385275 116.9375 27.3125 C121.09662524 43.00293478 115.77355956 58.82778189 112.03515625 74.06640625 C111.40311756 76.68838922 110.77626708 79.31160512 110.14927673 81.93479919 C108.66481445 88.13264426 107.16329995 94.32622089 105.65528148 100.51837152 C103.97505619 107.42082113 102.31274887 114.32753766 100.65258718 121.23483586 C97.95320542 132.46518369 95.24226784 143.6926843 92.52392578 154.91845703 C88.30534893 172.3469984 84.16632239 189.79411701 80.0625 207.25 C81.07787842 207.23622314 82.09325684 207.22244629 83.1394043 207.20825195 C84.49267317 207.1971067 85.84594487 207.18630118 87.19921875 207.17578125 C87.86594604 207.1658313 88.53267334 207.15588135 89.21960449 207.14562988 C100.8265109 207.07812721 112.79444908 211.47720552 121.40625 219.3984375 C132.3257219 231.60558297 136.47599146 246.7082273 136.375 262.75 C136.36936035 263.70704834 136.3637207 264.66409668 136.35791016 265.65014648 C135.75329618 301.69052725 119.82179438 337.33555077 99.0625 366.25 C98.65338379 366.82282715 98.24426758 367.3956543 97.82275391 367.98583984 C92.36306348 375.52541234 86.26568585 382.35716089 79.75 389 C79.0995874 389.67272949 78.4491748 390.34545898 77.77905273 391.03857422 C74.5171887 394.28583231 71.594594 397.0690922 67.44262695 399.10253906 C63.32519553 401.24165115 59.68377463 403.32010171 57.0625 407.25 C54.67117036 415.3339587 55.55996625 424.17888519 55.875 432.5 C55.94605419 435.93757754 55.997343 439.37459317 56.03581238 442.81268311 C56.06597022 444.94338576 56.11826641 447.07392347 56.195755 449.20343018 C56.33955436 454.68679639 56.23839857 458.5339118 53.0625 463.25 C50.69331678 465.41013764 49.08399299 466.18969719 45.87890625 466.37890625 C39.84589133 466.05199411 39.84589133 466.05199411 36.95936584 463.09692383 C34.70819107 459.71823306 34.5515264 457.91394182 34.52905273 453.88671875 C34.5132164 452.62190674 34.49738007 451.35709473 34.48106384 450.05395508 C34.48490529 448.68179962 34.48994432 447.30964706 34.49609375 445.9375 C34.49085537 444.52172436 34.4845781 443.10595222 34.47731018 441.69018555 C34.46691899 438.72785987 34.47144884 435.76601496 34.48608398 432.80371094 C34.50327905 429.01367509 34.47976383 425.22515431 34.44459438 421.43528748 C34.42260023 418.51320414 34.42406633 415.59148233 34.4323597 412.66934204 C34.43317798 411.27233212 34.42633799 409.87529533 34.41158867 408.47836304 C34.39410903 406.52340277 34.41202482 404.56822369 34.43139648 402.61328125 C34.43235825 401.50251221 34.43332001 400.39174316 34.43431091 399.24731445 C35.26260411 395.29523186 37.02095449 393.81427361 40.0625 391.25 C42.3515625 389.765625 42.3515625 389.765625 44.6875 388.5 C79.39124336 368.31622048 100.74938688 326.55635521 111.0625 289.25 C114.90880917 274.43833574 117.53177733 254.83363226 109.73828125 240.87890625 C105.27284459 234.49133937 99.77538098 230.69047542 92.0625 229.25 C88.07076548 228.95216343 84.08944454 228.94599111 80.08789062 228.94360352 C78.89842331 228.93528 77.70895599 228.92695648 76.48344421 228.91838074 C73.23759247 228.89847949 69.99188951 228.88765295 66.74598503 228.88255429 C64.71482621 228.87889919 62.68369163 228.8726534 60.65254211 228.8655529 C53.55757575 228.84110379 46.46268211 228.82801505 39.36767578 228.82446289 C32.7674424 228.82082463 26.16767313 228.7908974 19.56758165 228.74905831 C13.88753188 228.71432113 8.20763584 228.69891392 2.5274806 228.69821686 C-0.85929044 228.6974256 -4.24558725 228.68875702 -7.63224792 228.66021919 C-11.40954106 228.63336308 -15.18555075 228.63811405 -18.96289062 228.65063477 C-20.07686722 228.63580048 -21.19084381 228.62096619 -22.33857727 228.60568237 C-29.22944514 228.67072189 -32.78886489 229.58666219 -37.9375 234.25 C-41.63715058 238.72852438 -42.64211477 243.94946998 -42.38671875 249.65625 C-41.47279409 254.93317151 -39.30624141 260.00561752 -35.375 263.73046875 C-30.30416824 267.24201975 -25.63405187 267.39167871 -19.68994141 267.37597656 C-18.84897415 267.3778447 -18.0080069 267.37971283 -17.14155579 267.38163757 C-15.31473726 267.38564168 -13.48791373 267.38771642 -11.66109085 267.38809967 C-7.77816799 267.39151386 -3.89541279 267.41287313 -0.01254845 267.43333054 C7.21821943 267.47136705 14.44880817 267.50261314 21.6796875 267.50048828 C26.70841454 267.49970174 31.73652791 267.52303939 36.76509476 267.5623703 C38.68120185 267.57283999 40.5973797 267.57434722 42.51350021 267.56671906 C45.195061 267.55710803 47.87475975 267.57825749 50.55615234 267.60644531 C51.34697708 267.59624863 52.13780182 267.58605194 52.95259094 267.57554626 C57.01918055 267.65217759 58.83452006 268.06455204 62.03164673 270.66522217 C64.67006225 274.02327764 65.25708285 275.44263312 64.9375 279.625 C64.87175781 280.78128906 64.87175781 280.78128906 64.8046875 281.9609375 C63.69908553 285.37084672 62.07451051 286.32091595 59.0625 288.25 C55.99122355 289.62888051 52.84654964 290.77701453 49.6875 291.9375 C34.92633853 297.63787222 23.17416789 304.9870386 12.0625 316.25 C11.38574219 316.92804688 10.70898438 317.60609375 10.01171875 318.3046875 C-0.97201233 330.04339788 -6.01185415 344.08043994 -7.16723633 359.84423828 C-7.63842883 365.60694174 -8.71041445 370.69297585 -12.625 375.1875 C-16.09380962 376.7812774 -19.24861222 376.97928108 -22.9375 376.25 C-26.375 374.3125 -26.375 374.3125 -28.9375 371.25 C-33.64507771 353.59658359 -25.25454415 331.66474038 -16.59765625 316.44140625 C-10.40880225 306.25760558 -1.97705152 297.90052254 7.0625 290.25 C5.9887915 290.23018066 4.91508301 290.21036133 3.80883789 290.18994141 C-0.21140229 290.11331556 -4.23130712 290.02469068 -8.2512207 289.93261719 C-9.98422579 289.89456106 -11.71730361 289.85966942 -13.45043945 289.828125 C-15.95550362 289.781962 -18.46007707 289.72405822 -20.96484375 289.6640625 C-21.72772202 289.65251129 -22.49060028 289.64096008 -23.27659607 289.62905884 C-34.14081839 289.33737904 -43.02130448 286.65938857 -51.171875 279.20703125 C-60.85778533 268.92030317 -64.58207388 257.50298113 -64.24609375 243.5859375 C-63.61864425 231.66700053 -58.14109094 222.84863577 -49.5 214.9375 C-42.26439422 209.05754948 -35.27480728 207.09789849 -26.05981445 207.13647461 C-25.15229431 207.13632858 -24.24477417 207.13618256 -23.30975342 207.1360321 C-20.30673848 207.13672939 -17.30378537 207.14451324 -14.30078125 207.15234375 C-12.21998631 207.15420858 -10.13919092 207.15563218 -8.05839539 207.15663147 C-2.5789977 207.16045151 2.90037352 207.17027745 8.37976074 207.18133545 C13.96996706 207.19156057 19.56017765 207.19613145 25.15039062 207.20117188 C36.12110538 207.21190015 47.09180049 207.22897045 58.0625 207.25 C58.15448669 206.60635498 58.24647339 205.96270996 58.34124756 205.29956055 C59.86337946 195.41723606 62.22524125 185.77141271 64.578125 176.0625 C65.03125757 174.17895057 65.48397603 172.29530148 65.93630981 170.41156006 C66.89507676 166.42143753 67.85615018 162.43188083 68.81903076 158.44274902 C70.32062257 152.21999902 71.81484478 145.99549567 73.30712891 139.77050781 C73.55475794 138.73757725 73.80238697 137.70464668 74.05751991 136.64041519 C74.55716775 134.55606888 75.05678188 132.47171449 75.55636215 130.38735199 C76.30446181 127.2665665 77.0529461 124.14587349 77.80154419 121.02520752 C83.70324003 96.4240824 83.70324003 96.4240824 89.53845215 71.80712891 C90.13385172 69.28583605 90.73252253 66.76531327 91.33459473 64.24560547 C92.15596781 60.80628669 92.96622975 57.36454145 93.7734375 53.921875 C94.00982941 52.94281189 94.24622131 51.96374878 94.48977661 50.95501709 C95.92045415 44.77792986 97.29476471 38.63872797 95.0625 32.5 C91.68783386 28.7035006 87.79742836 26.7144218 82.78515625 25.86328125 C78.29790995 25.64083656 74.44748032 26.21352218 70.6005249 28.75682068 C64.13361108 35.03517285 61.59736524 46.38250895 58.546875 54.62109375 C58.01718377 56.0392586 57.48700872 57.45724281 56.95639038 58.87506104 C55.8250295 61.90115984 54.69711983 64.92851401 53.57183838 67.95687866 C51.7956727 72.73602578 50.00937882 77.51135163 48.22216797 82.28637695 C42.65801898 97.16239687 37.12644399 112.05001031 31.65246582 126.9594574 C29.65538585 132.3986656 27.65001356 137.83480585 25.64289856 143.27031803 C24.01600675 147.67922391 22.40205119 152.09259437 20.7974987 156.50967598 C19.79953526 159.24821 18.79019726 161.98244831 17.77775955 164.7156601 C17.0926649 166.57602123 16.42162239 168.44153853 15.75106812 170.30718994 C11.94370158 180.52716313 11.94370158 180.52716313 7.0625 184.25 C4.37064901 185.37549454 1.96019354 185.53920229 -0.9375 185.25 C-4.37455802 183.59512021 -6.33144774 182.41176602 -8.10845947 179.00534058 C-9.09545721 175.72502457 -9.03876501 173.20911105 -8.82714844 169.78955078 C-8.79023643 169.1462318 -8.75332443 168.50291283 -8.71529388 167.84009933 C-8.58719519 165.66598401 -8.44212761 163.49334462 -8.296875 161.3203125 C-8.19949491 159.73882641 -8.10290163 158.1572917 -8.00701904 156.57571411 C-7.67106483 151.13240173 -7.30667172 145.69114862 -6.9375 140.25 C-6.83530655 138.74218208 -6.83530655 138.74218208 -6.73104858 137.2039032 C-6.20785358 129.50784808 -5.67554945 121.81243523 -5.140625 114.1171875 C-5.06180588 112.9826136 -4.98298676 111.8480397 -4.90177917 110.67908478 C-4.66010748 107.20270029 -4.41802737 103.72634451 -4.17578125 100.25 C-4.0952375 99.09306515 -4.01469376 97.93613029 -3.93170929 96.74413681 C-3.51642944 90.79153649 -3.0961278 84.83934877 -2.66748047 78.88769531 C-2.24512433 73.0179298 -1.83582151 67.14737978 -1.43514252 61.27609634 C-1.28204079 59.0678968 -1.12418705 56.86002093 -0.96128082 54.65252304 C-0.73556509 51.58661288 -0.52658039 48.51997286 -0.32128906 45.45263672 C-0.21703362 44.11866096 -0.21703362 44.11866096 -0.110672 42.75773621 C0.26687383 36.76622641 -0.03431365 30.99261787 -1.9375 25.25 C-5.24870689 21.76898763 -8.06004531 20.40290352 -12.86328125 20.01171875 C-19.80216551 19.85914971 -19.80216551 19.85914971 -26.4375 21.625 C-33.52756635 29.06956967 -35.03236675 38.30117527 -36.38525391 48.1574707 C-36.58650417 49.53034867 -36.78931314 50.9029989 -36.99354553 52.2754364 C-37.42688661 55.20957656 -37.84949492 58.14498295 -38.26356888 61.08190346 C-38.9189071 65.72844671 -39.59953307 70.37107651 -40.28353882 75.01347351 C-41.48476426 83.18806992 -42.66521698 91.36556059 -43.84075928 99.54388428 C-45.6128747 111.87232059 -47.39952748 124.19862167 -49.20889413 136.52164716 C-49.88544537 141.13507671 -50.5503289 145.74999235 -51.20596719 150.36643851 C-51.61556964 153.2356979 -52.03422396 156.10358483 -52.45521355 158.97119331 C-52.74005916 160.93117972 -53.01374934 162.89277723 -53.28709412 164.85440063 C-53.46068954 166.02480392 -53.63428497 167.19520721 -53.81314087 168.40107727 C-53.95874262 169.41588826 -54.10434437 170.43069925 -54.25435829 171.47626209 C-55.34451674 175.90259675 -56.91787248 178.55479942 -60.6875 181.125 C-64.72934647 182.5241007 -66.84898688 182.51372224 -70.9375 181.25 C-76.78828717 176.04247556 -77.31787715 170.118822 -78.4453125 162.6171875 C-78.65263504 161.34403687 -78.85995758 160.07088623 -79.07356262 158.75915527 C-79.52314666 155.9971113 -79.96032608 153.23349102 -80.38790894 150.46795654 C-81.06588616 146.0841847 -81.77252397 141.70531877 -82.48266602 137.32666016 C-83.99480471 127.97203287 -85.4686625 118.61150915 -86.9375 109.25 C-87.44211497 106.03513975 -87.9468504 102.82029842 -88.45166016 99.60546875 C-88.57632156 98.81132002 -88.70098297 98.01717129 -88.829422 97.19895744 C-89.81385208 90.93185328 -90.80659367 84.66608862 -91.80349731 78.40095711 C-92.51525859 73.92050123 -93.21292158 69.43814022 -93.89946842 64.95375443 C-94.33065068 62.15390309 -94.77272775 59.35584619 -95.21747398 56.55812073 C-95.5168205 54.65291329 -95.80270272 52.74560536 -96.08808899 50.83825684 C-97.33213317 43.09723622 -98.58151532 36.22462278 -104.6875 30.8125 C-110.05038692 28.23418898 -114.48718675 27.52878507 -120.125 29.3125 C-124.31986942 31.10440288 -126.37273765 33.51943658 -128.9375 37.25 C-131.77363802 45.75841407 -129.66077783 55.7512764 -128.26928711 64.40917969 C-128.00353127 66.133545 -128.00353127 66.133545 -127.73240662 67.89274597 C-127.3500311 70.36663002 -126.96358011 72.839887 -126.57340813 75.31255341 C-125.9557803 79.22935253 -125.3495862 83.14782852 -124.7469635 87.06695557 C-123.24930669 96.79219221 -121.73245705 106.51442322 -120.21295166 116.23626709 C-119.02897704 123.81304767 -117.8501243 131.3905546 -116.6860047 138.9704144 C-115.99199746 143.4848465 -115.28163769 147.9965386 -114.56858826 152.50799561 C-114.20383328 154.87469415 -113.83970947 157.24149009 -113.47631836 159.60839844 C-113.30440979 160.67352158 -113.13250122 161.73864471 -112.9553833 162.83604431 C-110.93299558 176.24324337 -110.93299558 176.24324337 -114.9375 182.25 C-118.42199003 184.57299335 -120.47259561 184.84096772 -124.55859375 184.9140625 C-130.92305982 183.13744636 -134.51671694 177.42846213 -137.9375 172.1875 C-138.89866456 170.75318527 -139.86095804 169.31962659 -140.82421875 167.88671875 C-141.32872559 167.13181152 -141.83323242 166.3769043 -142.35302734 165.59912109 C-145.09849472 161.52872247 -147.9268303 157.51671125 -150.75 153.5 C-151.93633757 151.8086917 -153.12253402 150.1172844 -154.30859375 148.42578125 C-154.90397949 147.57709473 -155.49936523 146.7284082 -156.11279297 145.85400391 C-157.96497795 143.21078675 -159.8131372 140.56479788 -161.66015625 137.91796875 C-162.87753491 136.17443081 -164.0949816 134.43094037 -165.3125 132.6875 C-165.89507568 131.8526709 -166.47765137 131.0178418 -167.07788086 130.15771484 C-170.85823811 124.75348908 -174.70900555 119.41499054 -178.6796875 114.1484375 C-179.9375 112.25 -179.9375 112.25 -179.9375 110.25 C-180.72125 109.940625 -181.505 109.63125 -182.3125 109.3125 C-184.9375 108.25 -184.9375 108.25 -186.9375 107.25 C-193.22306127 106.95006658 -197.5541563 108.63340747 -202.33984375 112.6484375 C-205.53347504 115.84987718 -205.8323558 118.48770453 -206.4375 122.875 C-206.33964766 126.61774344 -205.16390194 129.02885606 -203.31640625 132.2578125 C-202.497771 133.7116333 -202.497771 133.7116333 -201.66259766 135.19482422 C-201.09331543 136.20303223 -200.5240332 137.21124023 -199.9375 138.25 C-198.86813547 140.23138298 -197.8043794 142.21580255 -196.74609375 144.203125 C-190.58133862 155.72378441 -184.32509727 167.17711823 -177.85351562 178.52832031 C-172.9652118 187.13209316 -168.26988382 195.83407497 -163.60546875 204.56054688 C-163.05375 205.59244141 -162.50203125 206.62433594 -161.93359375 207.6875 C-161.41732422 208.65937256 -160.90105469 209.63124512 -160.36914062 210.63256836 C-159.16586182 212.83249198 -157.88990133 214.94367755 -156.55859375 217.06640625 C-154.66832001 220.77863058 -154.46506611 223.03770222 -154.5625 227.1875 C-154.57539063 227.88786377 -154.58828125 228.58822754 -154.6015625 229.30981445 C-154.82884082 237.89933677 -155.50961076 246.4763912 -156.07733154 255.0489502 C-158.71586652 295.14958315 -157.27640667 335.83419283 -130.0703125 367.8359375 C-129.01457031 369.03089844 -129.01457031 369.03089844 -127.9375 370.25 C-127.12925781 371.16652344 -127.12925781 371.16652344 -126.3046875 372.1015625 C-121.95097639 376.71780895 -116.9099794 380.48779064 -111.82348633 384.25585938 C-110.94406372 384.92198242 -110.94406372 384.92198242 -110.046875 385.6015625 C-109.52061523 385.99166504 -108.99435547 386.38176758 -108.45214844 386.78369141 C-104.9066974 390.21598975 -103.7598012 393.12565219 -103.58105469 398.00048828 C-103.57473969 399.94044238 -103.58539115 401.88049639 -103.609375 403.8203125 C-103.61124817 404.88764618 -103.61312134 405.95497986 -103.61505127 407.05465698 C-103.6251925 410.49499297 -103.65648097 413.93479614 -103.6875 417.375 C-103.69398702 419.54166322 -103.69920461 421.70833062 -103.703125 423.875 C-103.78207576 445.67138952 -104.38901805 467.46146859 -104.9375 489.25 C-102.98764442 489.24000725 -102.98764442 489.24000725 -100.99839783 489.22981262 C-88.74205567 489.16897115 -76.4857442 489.12401266 -64.22928524 489.09456348 C-57.92826475 489.07891436 -51.62736628 489.05768949 -45.32641602 489.02368164 C-39.24451563 488.99106185 -33.16273254 488.97314131 -27.08075142 488.96536827 C-24.76154293 488.95982951 -22.44234079 488.94901369 -20.1231823 488.93280983 C-16.87226411 488.9110012 -13.6218293 488.90803458 -10.37084961 488.90942383 C-8.93585869 488.89324509 -8.93585869 488.89324509 -7.47187805 488.8767395 C-1.8554946 488.90267355 2.10584175 489.54004835 7.0625 492.25 C9.33292717 494.95986468 9.98085776 496.70183064 10.5 500.1875 C9.94643677 504.0624426 8.47076469 506.20425348 6.0625 509.25 C3.58398998 510.48925501 1.92158207 510.38684364 -0.85188293 510.40390015 C-1.89076157 510.41250061 -2.9296402 510.42110107 -4 510.42996216 C-5.7166687 510.43635208 -5.7166687 510.43635208 -7.46801758 510.44287109 C-8.66972092 510.45104858 -9.87142426 510.45922607 -11.10954285 510.46765137 C-15.1003689 510.49253662 -19.09115703 510.50917879 -23.08203125 510.5234375 C-24.45573114 510.5287972 -25.82943097 510.53417471 -27.20313072 510.53956985 C-32.91723757 510.5611984 -38.63134159 510.57993521 -44.34547901 510.59119225 C-52.53527506 510.60743241 -60.72459674 510.64061125 -68.91421396 510.69759309 C-74.67224664 510.73629084 -80.43015244 510.75582468 -86.18831176 510.76111281 C-89.627652 510.76476659 -93.06648631 510.77678904 -96.50568581 510.80921555 C-100.34353184 510.84488197 -104.18078234 510.8409257 -108.01879883 510.83349609 C-109.15717194 510.84990143 -110.29554504 510.86630676 -111.46841431 510.88320923 C-119.18271194 510.82193843 -119.18271194 510.82193843 -123.11991882 507.83853149 C-125.40219343 504.5882009 -126.06385903 503.0891882 -125.98373413 499.19773865 C-125.96921204 498.34975204 -125.95468994 497.50176544 -125.93972778 496.62808228 C-125.91885101 495.6956369 -125.89797424 494.76319153 -125.87646484 493.80249023 C-125.84013477 491.76924827 -125.80421472 489.73599896 -125.76864624 487.70274353 C-125.748307 486.62064039 -125.72796776 485.53853725 -125.70701218 484.42364311 C-125.58651315 477.5011095 -125.52387195 470.57775705 -125.44969749 463.6546011 C-125.38113659 457.56830542 -125.29292199 451.48350227 -125.16259766 445.39819336 C-125.03772698 439.51487661 -124.96710024 433.63309834 -124.93278885 427.74858284 C-124.91000984 425.50890757 -124.86763322 423.26934029 -124.80503464 421.03042412 C-123.8501129 408.76717282 -123.8501129 408.76717282 -128.33319092 397.93241882 C-131.10295868 395.6497785 -133.78753054 393.94940624 -136.9375 392.25 C-138.96290588 390.55656433 -138.96290588 390.55656433 -140.46875 389.08984375 C-140.9635083 388.61506592 -141.4582666 388.14028809 -141.96801758 387.65112305 C-170.84571242 358.88857436 -179.02986597 321.01432778 -179.1875 281.4375 C-179.1637575 269.21175204 -178.51923238 257.0479892 -177.64941406 244.8581543 C-177.47209406 242.37267682 -177.30404244 239.88651292 -177.1472168 237.3996582 C-177.02607749 235.58031227 -176.8817668 233.7615698 -176.67504883 231.94995117 C-176.15164059 225.46609812 -179.5085327 220.595604 -182.625 215.1875 C-183.21224854 214.13675293 -183.79949707 213.08600586 -184.40454102 212.00341797 C-186.23204268 208.74244302 -188.08244142 205.49536263 -189.9375 202.25 C-191.02701871 200.32737627 -192.11559938 198.40422057 -193.203125 196.48046875 C-194.79257785 193.67003268 -196.38330735 190.86040181 -197.98022461 188.05419922 C-202.77663241 179.60554699 -207.3840546 171.06023191 -211.96166992 162.49145508 C-215.61256319 155.66739895 -219.32463749 148.88731075 -223.27441406 142.23071289 C-228.48323492 133.23844062 -229.51331595 123.28745077 -227.25 113.1796875 C-224.0026653 103.46474452 -217.80567887 94.8936271 -208.6328125 90.02734375 C-198.68808717 85.47885462 -187.59858124 84.32531045 -177.0625 87.8125 C-167.51561976 92.02346771 -161.53131413 98.4008295 -155.875 107 C-154.7394453 108.68307762 -153.60271775 110.36536451 -152.46484375 112.046875 C-151.93455063 112.837453 -151.40425751 113.62803101 -150.8578949 114.44256592 C-148.86217811 117.36011342 -146.80186281 120.22073612 -144.71704102 123.07519531 C-143.65103416 124.53617645 -143.65103416 124.53617645 -142.56349182 126.02667236 C-142.02691452 126.76037048 -141.49033722 127.4940686 -140.9375 128.25 C-141.07530884 127.36289337 -141.21311768 126.47578674 -141.35510254 125.5617981 C-142.66365359 117.12237213 -143.95897064 108.68103731 -145.24016571 100.23741341 C-145.89898532 95.89852587 -146.56255713 91.56048671 -147.23779297 87.22412109 C-147.89158162 83.02425355 -148.53183799 78.82250932 -149.16349792 74.61925888 C-149.40441225 73.03133197 -149.64986121 71.44408488 -149.90034485 69.85763931 C-151.23352649 61.39329198 -152.15266827 53.08981491 -152.18945312 44.51123047 C-152.19401268 43.77325792 -152.19857224 43.03528538 -152.20326996 42.27495003 C-152.10088824 32.62048804 -148.74942089 24.13469782 -141.9375 17.25 C-132.46357056 9.34976018 -122.40384959 5.38078663 -109.9375 6.25 C-98.96556125 7.63885301 -89.82589491 12.59710564 -82.9375 21.25 C-77.51928741 29.91792117 -75.48218349 38.65148463 -73.9453125 48.640625 C-73.70897035 50.08107101 -73.47089001 51.52123278 -73.23117065 52.96112061 C-72.61229524 56.70661353 -72.01671401 60.45543073 -71.42633057 64.20550537 C-70.81680027 68.04950346 -70.1847279 71.88978898 -69.5546875 75.73046875 C-68.32718581 83.23357276 -67.12433185 90.7403433 -65.9375 98.25 C-65.82110168 97.43726624 -65.70470337 96.62453247 -65.58477783 95.78717041 C-64.47866334 88.0780058 -63.3618004 80.37050758 -62.23323441 72.66460037 C-61.65358221 68.70413334 -61.07791034 64.74317733 -60.51171875 60.78076172 C-59.96379568 56.94728918 -59.40491664 53.1155521 -58.83882904 49.28472137 C-58.62614473 47.83267135 -58.41722405 46.38006424 -58.21237946 44.92688751 C-55.99266529 29.2179613 -52.69627082 15.23434304 -40.02734375 4.75390625 C-29.14693245 -3.07592244 -12.56772104 -4.93041364 0 0 Z " fill="#000000" transform="translate(301.9375,1.75)"/>
<path d="M0 0 C2.50670319 4.0107251 2.38447518 7.91619245 1.5625 12.5 C-0.3125 15.625 -0.3125 15.625 -3.4375 17.5 C-8.46372846 18.48876625 -12.14263784 18.2769173 -16.5625 15.625 C-19.19852749 11.23162086 -19.47197266 7.49995121 -18.4375 2.5 C-16.32123654 -0.38046971 -14.7301342 -1.8536829 -11.5625 -3.4375 C-7.23660249 -3.56473228 -3.64731257 -2.24450004 0 0 Z " fill="#000000" transform="translate(355.4375,494.5)"/>
</svg>
