<?xml version="1.0" encoding="UTF-8"?>
<svg version="1.1" xmlns="http://www.w3.org/2000/svg" width="512" height="512">
<path d="M0 0 C8.00505184 5.38227864 12.56427182 12.57787685 15.56084347 21.70899582 C16.17887452 24.93315763 16.13392749 28.12104211 16.12025452 31.39044189 C16.12153615 32.51037824 16.12153615 32.51037824 16.12284368 33.65293956 C16.1244913 36.15569502 16.11898884 38.65838352 16.11352539 41.16113281 C16.11324334 42.95480345 16.11340161 44.7484742 16.1139679 46.54214478 C16.11425516 51.41366346 16.10836977 56.2851576 16.10139394 61.15667057 C16.09514872 66.24692219 16.09455567 71.33717434 16.09336853 76.4274292 C16.09025867 86.06752772 16.08204991 95.70761493 16.07201904 105.34770846 C16.06084721 116.3221979 16.05534475 127.29668788 16.05032361 138.27118158 C16.03986703 160.84746067 16.02227424 183.4237297 16 206 C16.62815109 205.99149017 17.25630219 205.98298035 17.90348816 205.97421265 C20.78328754 205.94017807 23.66304441 205.91921305 26.54296875 205.8984375 C27.53099487 205.88482178 28.519021 205.87120605 29.5369873 205.85717773 C43.51327698 205.78164593 53.85691058 210.23001113 64.1875 219.625 C75.34616013 231.29491348 78.36478241 248.2179385 78.1484375 263.81640625 C76.87216004 291.18919922 67.96170864 317.02403156 55 341 C54.68063477 341.5986084 54.36126953 342.1972168 54.03222656 342.81396484 C41.25358679 366.6133706 23.13000045 389.59950385 0 404 C-0.66 404 -1.32 404 -2 404 C-1.99000725 404.93841232 -1.99000725 404.93841232 -1.97981262 405.89578247 C-1.91335437 412.41712293 -1.86815574 418.9383669 -1.83520508 425.45996094 C-1.82013466 427.89261789 -1.79967477 430.32524774 -1.77368164 432.7578125 C-1.7372226 436.25788061 -1.7202558 439.7575889 -1.70703125 443.2578125 C-1.69154739 444.34240753 -1.67606354 445.42700256 -1.66011047 446.54446411 C-1.65887519 452.10833284 -1.77942672 456.22734918 -5 461 C-7.95118888 463.40467242 -11.29107729 463.41186021 -15.03125 463.328125 C-18.14316604 462.80947233 -19.85067869 461.21445226 -22 459 C-23.35832423 456.28335155 -23.15730277 454.11046241 -23.19287109 451.0690918 C-23.20893402 449.82407394 -23.22499695 448.57905609 -23.24154663 447.29631042 C-23.25303364 445.93062014 -23.26364226 444.56492222 -23.2734375 443.19921875 C-23.27876118 442.51224222 -23.28408485 441.82526569 -23.28956985 441.11747169 C-23.31629506 437.48075094 -23.33567122 433.84406444 -23.35009766 430.20727539 C-23.36343528 427.19915342 -23.39128328 424.19171011 -23.43212891 421.18383789 C-23.48146845 417.55045223 -23.50622 413.91768197 -23.51332474 410.2839756 C-23.52003392 408.90086971 -23.53524779 407.51777738 -23.55921555 406.1348629 C-23.59089086 404.19651443 -23.5879004 402.25769406 -23.58349609 400.3190918 C-23.59158295 399.21703903 -23.5996698 398.11498627 -23.60800171 396.97953796 C-22.63316445 392.20230696 -19.47712914 389.98948715 -15.5625 387.3671875 C-14.716875 386.87476563 -13.87125 386.38234375 -13 385.875 C21.3830916 364.47799542 43.87821598 324.05602943 53.03125 285.4609375 C56.61232554 269.39430434 58.57167006 251.67483327 49.75390625 236.9140625 C45.93711847 231.78897069 41.02546345 229.73274845 35 228 C30.94785937 227.45630064 26.95303167 227.41525128 22.8684082 227.42236328 C21.69800995 227.40881302 20.52761169 227.39526276 19.32174683 227.38130188 C15.48131699 227.34184708 11.64139139 227.33047146 7.80078125 227.3203125 C5.11897067 227.30023388 2.43720095 227.27881192 -0.24458313 227.25582886 C-5.85191941 227.21086286 -11.45917215 227.18105597 -17.06665039 227.16113281 C-23.53573366 227.13802851 -30.00440502 227.09398169 -36.47328252 227.03806698 C-42.71921308 226.9842998 -48.96516271 226.94230471 -55.21122169 226.90667343 C-57.85977615 226.89082664 -60.50831672 226.87244662 -63.15683556 226.85147476 C-66.85679278 226.82442958 -70.55655352 226.81091179 -74.2565918 226.80126953 C-75.89243477 226.78588387 -75.89243477 226.78588387 -77.56132507 226.77018738 C-86.70697204 226.70428187 -86.70697204 226.70428187 -94.890625 230.375 C-98.81848139 235.07036856 -101.36801265 239.83583357 -102 246 C-101.20797848 251.57615149 -99.35437705 255.54644855 -96 260 C-96 260.66 -96 261.32 -96 262 C-90.77719616 264.70145026 -86.47740916 265.15017593 -80.66064453 265.15771484 C-79.80992371 265.16279556 -78.95920288 265.16787628 -78.08270264 265.17311096 C-76.23461055 265.18381323 -74.38650551 265.19243398 -72.53839493 265.19923019 C-69.6130826 265.211017 -66.68791804 265.23046903 -63.76266479 265.25234985 C-55.44517937 265.31397562 -47.1277093 265.36802571 -38.81005859 265.40136719 C-33.72309352 265.42230816 -28.63639822 265.4576062 -23.54958725 265.50212479 C-21.6111557 265.5162888 -19.67267642 265.52500813 -17.73419571 265.52817917 C-15.02189131 265.53308597 -12.31030342 265.55623765 -9.59814453 265.58349609 C-8.79796906 265.58048996 -7.99779358 265.57748383 -7.17337036 265.5743866 C-2.60554814 265.64258569 0.36784175 266.16814147 4 269 C6.16232881 271.75883331 6.93942763 273.51542103 7.375 277 C6.93958152 280.48334784 6.05776051 282.17117643 4 285 C1.71020508 286.3269043 1.71020508 286.3269043 -0.98046875 287.32421875 C-2.46788574 287.89934204 -2.46788574 287.89934204 -3.98535156 288.48608398 C-5.04206055 288.88255127 -6.09876953 289.27901855 -7.1875 289.6875 C-30.52937028 298.95641406 -48.66832431 311.83127096 -59.71875 335.01953125 C-63.31488044 343.38492005 -64.49167062 351.70699624 -65.17871094 360.71923828 C-65.57177982 365.20824141 -66.19733427 368.29849955 -69 372 C-72.42176689 374.56632517 -75.84640421 374.36435051 -80 374 C-83.81951767 372.30243659 -85.5036692 370.86662473 -87 367 C-89.26536293 345.22897965 -81.11926118 322.12958106 -67.625 305.25 C-62.2502255 298.96564828 -56.66453803 292.92214675 -50 288 C-51.82204956 287.98598145 -51.82204956 287.98598145 -53.6809082 287.97167969 C-58.2343264 287.93148095 -62.78708998 287.8656422 -67.34008789 287.79248047 C-69.30191571 287.76444285 -71.26385287 287.74314369 -73.22583008 287.72900391 C-93.64018679 287.57312946 -93.64018679 287.57312946 -103 283 C-103.99 282.67 -104.98 282.34 -106 282 C-106.30292969 282.51949219 -106.60585937 283.03898437 -106.91796875 283.57421875 C-112.20407838 292.37355817 -119.96305827 300.59877413 -130.12890625 303.5234375 C-141.49111827 305.40941011 -153.00537908 305.25573071 -163 299 C-174.19758476 290.71599214 -178.39619549 282.20723887 -182 269 C-183.175625 269.495 -184.35125 269.99 -185.5625 270.5 C-195.2813139 273.72425106 -205.66267432 272.93150555 -215 269 C-214.84241211 269.86971436 -214.68482422 270.73942871 -214.52246094 271.63549805 C-214.04229385 274.72763945 -213.7891557 277.70904516 -213.640625 280.83203125 C-211.76079863 315.27562236 -205.87062614 345.93952175 -181 371 C-180.05833984 371.99773437 -180.05833984 371.99773437 -179.09765625 373.015625 C-175.14748901 377.14238795 -170.80552723 380.58654639 -166.234375 384.0078125 C-162.79180506 387.07723674 -161.1536932 389.63271507 -160.63250732 394.26928711 C-160.63615295 395.5094458 -160.63979858 396.74960449 -160.64355469 398.02734375 C-160.64151031 398.71610596 -160.63946594 399.40486816 -160.63735962 400.11450195 C-160.6343564 402.38910647 -160.6528445 404.66298149 -160.671875 406.9375 C-160.67493933 408.53914207 -160.67681032 410.14078681 -160.67755127 411.74243164 C-160.68215479 415.10833893 -160.69656049 418.47400709 -160.71875 421.83984375 C-160.74666684 426.08963036 -160.75792605 430.33922651 -160.7624321 434.58909607 C-160.76767932 438.70525383 -160.78216049 442.82136718 -160.796875 446.9375 C-160.79875572 447.69336395 -160.80063644 448.44922791 -160.80257416 449.22799683 C-160.84195331 461.50675852 -161.34462703 473.73940278 -162 486 C-160.71262436 485.99333817 -159.42524872 485.98667633 -158.09886169 485.97981262 C-145.96024901 485.91896939 -133.82166731 485.87401183 -121.68293667 485.84456348 C-115.44244971 485.8289148 -109.20208597 485.80769075 -102.96166992 485.77368164 C-96.93812411 485.74106027 -90.91469675 485.72314098 -84.89106941 485.71536827 C-82.59418944 485.7098298 -80.29731586 485.69901453 -78.00048637 485.68280983 C-74.78069987 485.66099908 -71.56140136 485.65803466 -68.34155273 485.65942383 C-66.92058792 485.64324509 -66.92058792 485.64324509 -65.47091675 485.6267395 C-59.12517428 485.6563201 -54.02429246 486.36593882 -49.0625 490.6875 C-47.48925207 494.11162784 -47.32576214 497.34606578 -48 501 C-49.79363911 503.8100346 -51.01880935 505.50940468 -54 507 C-55.62299937 507.10328262 -57.25016799 507.14381681 -58.87641907 507.15390015 C-59.90688354 507.16250061 -60.93734802 507.17110107 -61.9990387 507.17996216 C-63.70168129 507.18635208 -63.70168129 507.18635208 -65.4387207 507.19287109 C-66.63067047 507.20104858 -67.82262024 507.20922607 -69.0506897 507.21765137 C-73.0090399 507.24253616 -76.96738265 507.25917879 -80.92578125 507.2734375 C-82.28833714 507.27879723 -83.65089296 507.28417474 -85.01344872 507.28956985 C-90.68123235 507.31119835 -96.34901313 507.32993512 -102.01682758 507.34119225 C-110.1400623 507.35743223 -118.26281874 507.39061067 -126.38587314 507.44759309 C-132.09719708 507.48629176 -137.8083931 507.50582479 -143.51984471 507.51111281 C-146.93124106 507.51476647 -150.3421273 507.52678763 -153.75338173 507.55921555 C-157.56032588 507.59071601 -161.36605628 507.59092578 -165.1730957 507.58349609 C-166.30211807 507.59990143 -167.43114044 507.61630676 -168.59437561 507.63320923 C-176.22630511 507.57210171 -176.22630511 507.57210171 -180.17668152 504.65103149 C-182.49070918 501.28652865 -183.13150679 498.91068266 -183.03277588 494.92359924 C-183.01536346 494.09540176 -182.99795105 493.26720428 -182.98001099 492.41390991 C-182.9439827 491.05575668 -182.9439827 491.05575668 -182.90722656 489.67016602 C-182.86423979 487.6872316 -182.82180586 485.70428515 -182.77984619 483.72132874 C-182.75626289 482.66819048 -182.7326796 481.61505222 -182.70838165 480.53000069 C-182.56865426 473.77405703 -182.49420976 467.01701582 -182.40857315 460.26020908 C-182.32965876 454.32729806 -182.22740694 448.39657974 -182.07421875 442.46508789 C-181.92721375 436.72318855 -181.84494516 430.98351978 -181.80553436 425.23991203 C-181.77913997 423.05841784 -181.72969042 420.87706868 -181.65607452 418.69665718 C-180.85138381 406.13383207 -180.85138381 406.13383207 -185.79382324 395.08615112 C-188.43420447 392.44250319 -191.2907399 390.2483999 -194.37734222 388.15319633 C-203.08736366 381.96312659 -209.45348943 372.98018523 -215 364 C-215.34804687 363.43716309 -215.69609375 362.87432617 -216.0546875 362.29443359 C-238.59620133 324.97594055 -236.36604765 278.80790866 -236.31567383 236.81298828 C-236.30981489 231.51249878 -236.32702139 226.21235148 -236.3500185 220.91191864 C-236.36479733 216.77498382 -236.36562325 212.63813147 -236.36250877 208.50117493 C-236.36301727 206.54616097 -236.36816492 204.59114182 -236.37832069 202.63615417 C-236.45133918 186.66104647 -235.86009253 173.32750098 -224.26953125 161.1875 C-216.30051037 153.89320172 -207.7168431 151.58153412 -197 151 C-186.74962186 151.52120567 -178.22012199 156.159387 -170 162 C-169.5875 161.61328125 -169.175 161.2265625 -168.75 160.828125 C-159.86427264 152.81510301 -150.62849031 149.57490302 -138.625 150.0625 C-129.19899762 151.00843885 -120.81743645 154.37193679 -114 161 C-110.99095392 159.57070311 -108.28405016 157.88605285 -105.5 156.0625 C-96.97920184 150.92237249 -87.03077362 148.46601303 -77.20703125 150.609375 C-72.88625401 151.72809671 -68.97128643 152.95963848 -65 155 C-64.53939234 145.0209372 -64.08143947 135.04175417 -63.625 125.0625 C-63.5738995 123.94603466 -63.5738995 123.94603466 -63.52176666 122.80701447 C-62.4951563 100.36883027 -61.51462917 77.92962263 -60.64697266 55.48461914 C-60.32931581 47.33405364 -59.99874349 39.18364666 -59.55078125 31.0390625 C-59.45277222 29.20529053 -59.45277222 29.20529053 -59.3527832 27.33447266 C-58.34427692 17.80216899 -54.17656158 9.80840095 -47.1875 3.31640625 C-34.00611144 -7.3403212 -14.60057867 -9.04793436 0 0 Z M-34 20 C-39.40432243 26.74887908 -38.8130466 34.74476684 -39.0859375 43.0078125 C-39.15582552 44.70662291 -39.2274532 46.40536245 -39.30062866 48.10403442 C-39.46200741 51.92616057 -39.61177157 55.74853546 -39.75427246 59.57141113 C-40.01594319 66.53151521 -40.31627941 73.48978361 -40.61816406 80.44824219 C-41.2247414 94.50790092 -41.80140405 108.56864191 -42.37096763 122.62983441 C-42.5978815 128.22454574 -42.82896493 133.81907954 -43.06090128 139.41358459 C-43.28849986 144.90748351 -43.51337439 150.40148964 -43.73617589 155.89558518 C-43.86760386 159.13563617 -44.00032203 162.37562423 -44.13515091 165.61553574 C-44.28434378 169.20954721 -44.42906581 172.80371398 -44.57275391 176.39794922 C-44.61636551 177.42569962 -44.65997711 178.45345001 -44.70491028 179.51234436 C-45.05095108 188.36153415 -45 197.11965634 -45 206 C-31.8 206 -18.6 206 -5 206 C-4.9322886 182.76492038 -4.87702143 159.52992059 -4.84456348 136.29476738 C-4.82909236 125.5063715 -4.8079981 114.71804125 -4.77368164 103.9296875 C-4.74378686 94.52693454 -4.72442678 85.12422911 -4.71773452 75.72142994 C-4.71382241 70.74237695 -4.70462321 65.76345995 -4.68280983 60.78445053 C-4.66244349 56.0977512 -4.65616652 51.41124385 -4.66067696 46.72450447 C-4.65985182 45.0048029 -4.65388705 43.28509489 -4.64238358 41.56543159 C-4.62743696 39.21573887 -4.63105401 36.86676911 -4.63923645 34.51705933 C-4.63508838 32.54534413 -4.63508838 32.54534413 -4.63085651 30.53379631 C-5.16551262 25.41555406 -6.73282714 22.1721349 -10.5 18.6875 C-17.77207458 13.77884966 -27.32289893 14.68557262 -34 20 Z M-153.765625 175.55078125 C-159.12438564 181.41680321 -160.30023594 187.2340845 -160.29052734 195.08154297 C-160.29724457 195.86936157 -160.30396179 196.65718018 -160.31088257 197.46887207 C-160.32980105 200.06004227 -160.33378353 202.65095264 -160.3359375 205.2421875 C-160.34236934 207.05290837 -160.34909799 208.86362821 -160.35610962 210.67434692 C-160.36806674 214.46537688 -160.37179202 218.25631581 -160.37060547 222.04736328 C-160.37040229 226.89161902 -160.39771057 231.73528806 -160.43214989 236.57940483 C-160.45444787 240.31819307 -160.45844213 244.05684071 -160.45738602 247.79568863 C-160.45973737 249.58097481 -160.46853453 251.36626514 -160.48405075 253.15148544 C-160.50377146 255.6546246 -160.49784977 258.15650611 -160.48583984 260.65966797 C-160.49707886 261.38824005 -160.50831787 262.11681213 -160.51989746 262.86746216 C-160.44730333 268.85817708 -158.69601864 274.14757633 -154.51727867 278.56873894 C-149.44007521 282.96775922 -145.1965229 283.35410897 -138.72265625 283.27734375 C-133.45538054 282.74079199 -130.52664615 279.73069435 -127.1875 275.9375 C-123.75622776 271.32979157 -123.83262669 267.43587889 -123.79125977 261.90771484 C-123.78147598 261.08292633 -123.7716922 260.25813782 -123.76161194 259.40835571 C-123.73167486 256.67589932 -123.71027382 253.94349196 -123.69140625 251.2109375 C-123.68483442 250.27612171 -123.6782626 249.34130592 -123.67149162 248.37816238 C-123.63890084 243.4270911 -123.61445272 238.47604126 -123.5949707 233.52490234 C-123.57718032 229.43538924 -123.54239621 225.34656861 -123.49243164 221.25732422 C-123.43209406 216.31303027 -123.40147602 211.36937678 -123.39179802 206.42473221 C-123.38326308 204.54532037 -123.36449354 202.66592473 -123.3350544 200.78672409 C-122.84045327 187.80841304 -122.84045327 187.80841304 -128.42857361 176.47549438 C-135.58500338 169.75594837 -146.33506298 169.02438054 -153.765625 175.55078125 Z M-96.8125 175.8125 C-101.1575235 180.1575235 -102.19195928 184.01834315 -102.29296875 190.0546875 C-102.27314064 192.32831035 -102.23753002 194.60184118 -102.1875 196.875 C-102.17396484 198.0403125 -102.16042969 199.205625 -102.14648438 200.40625 C-102.11125821 203.27131118 -102.06199715 206.13541377 -102 209 C-101.16082031 208.7834375 -100.32164062 208.566875 -99.45703125 208.34375 C-88.25258879 205.74979548 -77.46203493 205.6770558 -66 206 C-65.94562995 203.14557247 -65.90615026 200.29219924 -65.875 197.4375 C-65.85824219 196.63763672 -65.84148437 195.83777344 -65.82421875 195.01367188 C-65.7615423 187.33580659 -66.9289566 181.28122381 -72.21875 175.51171875 C-79.99966524 168.90817885 -88.82313686 170.66379931 -96.8125 175.8125 Z M-209.609375 176.33203125 C-215.44640149 182.83859901 -215.30799537 190.03933151 -215.30078125 198.27734375 C-215.30506638 199.3620546 -215.3093515 200.44676544 -215.31376648 201.56434631 C-215.31949665 203.85303043 -215.32001974 206.14173276 -215.31567383 208.43041992 C-215.312514 211.92202972 -215.33598993 215.41279171 -215.36132812 218.90429688 C-215.36360133 221.13281144 -215.36430451 223.36132826 -215.36328125 225.58984375 C-215.372491 226.62858139 -215.38170074 227.66731903 -215.39118958 228.73753357 C-215.34438968 236.10933016 -214.52734475 241.08383298 -209.5625 246.8125 C-205.14244359 250.58571889 -201.96112799 251.40547406 -196.2421875 251.24609375 C-191.39332419 250.71390144 -188.31099242 248.5773332 -185.1875 245 C-182.3332556 241.08560768 -181.87331385 238.51230431 -181.83886719 233.79760742 C-181.82925964 232.73607956 -181.8196521 231.6745517 -181.80975342 230.58085632 C-181.80550354 229.43397842 -181.80125366 228.28710052 -181.796875 227.10546875 C-181.79117493 225.92535721 -181.78547485 224.74524567 -181.77960205 223.52937317 C-181.77014964 221.03025205 -181.76361712 218.53111845 -181.75976562 216.03198242 C-181.75006517 212.21315699 -181.71904524 208.39487085 -181.6875 204.57617188 C-181.6809694 202.1484407 -181.67571915 199.72070567 -181.671875 197.29296875 C-181.6595282 196.15216354 -181.6471814 195.01135834 -181.63446045 193.83598328 C-181.65530943 186.39573042 -182.30923623 181.75333967 -187.6875 176.25 C-194.54928533 171.04450768 -202.77995557 170.67952633 -209.609375 176.33203125 Z " fill="#000000" transform="translate(335,5)"/>
<path d="M0 0 C3.41421647 2.36904816 4.64346607 3.97496494 6 7.875 C6 11.90306262 4.89929459 14.47273862 3 18 C-1.24643875 20.83095916 -5.01894953 20.8804086 -10 20 C-13.41019725 17.34004615 -14.59370586 15.92989716 -15.46875 11.7734375 C-15.74309826 7.67193094 -15.29681659 5.48480043 -13.125 1.9375 C-8.73360678 -0.7851638 -5.03720545 -1.02563789 0 0 Z " fill="#000000" transform="translate(327,492)"/>
</svg>
