<?xml version="1.0" encoding="UTF-8"?>
<svg version="1.1" xmlns="http://www.w3.org/2000/svg" width="512" height="512">
<path d="M0 0 C7.76131765 5.3195548 13.21836457 12.86406476 15.4002161 22.05726814 C17.10568153 32.32172974 15.35903947 43.06781523 14.29125977 53.34033203 C14.12489077 54.98410516 13.9590425 56.62793106 13.79367065 58.27180481 C13.34668763 62.69935138 12.89220512 67.12609771 12.4360745 71.55271006 C11.95885928 76.19448322 11.4879254 80.8368942 11.01609802 85.47921753 C10.22415154 93.26164284 9.42741987 101.04356666 8.62768555 108.82519531 C7.70259452 117.82705214 6.7846137 126.82961232 5.87049252 135.83258927 C4.99001545 144.50304075 4.10507914 153.17303113 3.21790886 161.84280014 C2.84056474 165.53082532 2.46470064 169.21899693 2.08999825 172.90729141 C1.64959844 177.23989084 1.20527735 181.57207045 0.75786972 185.90395164 C0.5940484 187.49618768 0.43157605 189.08856315 0.27052498 190.68108177 C0.05118018 192.84776841 -0.17297724 195.01390304 -0.39842224 197.17996216 C-0.52286429 198.39404818 -0.64730635 199.60813419 -0.77551937 200.8590107 C-1.1640625 203.6796875 -1.1640625 203.6796875 -2.1640625 205.6796875 C-0.87113281 205.63328125 0.42179688 205.586875 1.75390625 205.5390625 C17.38837781 205.14435913 31.2452068 206.94828627 43.27734375 217.90234375 C54.91099796 229.9959777 58.4258408 245.28085404 58.2734375 261.6796875 C58.26441406 262.85958252 58.25539063 264.03947754 58.24609375 265.25512695 C57.32969291 312.17930484 31.01890027 357.86593528 -1.71875 390.203125 C-8.24050577 396.30815516 -8.24050577 396.30815516 -12.2421875 397.91796875 C-16.02946298 399.57373574 -18.96878318 401.14168441 -21.1640625 404.6796875 C-23.32221265 413.10004957 -22.43063841 422.26001699 -22.1640625 430.8671875 C-22.09526709 434.47124939 -22.04358611 438.074446 -22.01269531 441.67903137 C-21.98904672 443.9164896 -21.94116318 446.15385499 -21.86621094 448.3901825 C-21.72470041 455.94349447 -21.72470041 455.94349447 -24.05078125 459.84106445 C-27.3160314 462.6819377 -29.70482092 463.07883222 -34.05859375 463.03125 C-37.8612982 462.39629007 -39.56492113 460.46900994 -42.1640625 457.6796875 C-43.28186311 454.53452863 -43.30171669 451.5137161 -43.32519531 448.19604492 C-43.33480286 447.09777878 -43.3444104 445.99951263 -43.35430908 444.8679657 C-43.3606839 443.09447502 -43.3606839 443.09447502 -43.3671875 441.28515625 C-43.37288757 440.06443924 -43.37858765 438.84372223 -43.38446045 437.58601379 C-43.39390602 435.00290798 -43.40044267 432.41979013 -43.40429688 429.83666992 C-43.41399936 425.89285168 -43.44502673 421.94955526 -43.4765625 418.00585938 C-43.4830931 415.49479476 -43.48834335 412.98372642 -43.4921875 410.47265625 C-43.5045343 409.29640182 -43.5168811 408.1201474 -43.52960205 406.9082489 C-43.51289693 400.74229508 -43.31418965 396.05546296 -40.1640625 390.6796875 C-37.88092692 388.86533261 -35.83648942 387.44655616 -33.3515625 385.9921875 C2.2795021 363.59935388 24.53122896 323.28422549 34.109375 283.09765625 C37.27914954 268.18608246 38.59712715 250.39747882 30.73828125 236.77734375 C27.0057007 231.60234224 20.92419387 228.96306348 14.8359375 227.6796875 C13.13912394 227.57847903 11.43895487 227.52788054 9.73919678 227.5123291 C8.19587929 227.49509293 8.19587929 227.49509293 6.62138367 227.47750854 C5.49819229 227.47010651 4.37500092 227.46270447 3.21777344 227.45507812 C2.03035049 227.44368805 0.84292755 227.43229797 -0.38047791 227.42056274 C-4.31351809 227.38552064 -8.24656212 227.35879792 -12.1796875 227.3359375 C-12.84992919 227.33199163 -13.52017088 227.32804577 -14.21072292 227.32398033 C-20.53702693 227.28756904 -26.86334238 227.256143 -33.18971634 227.23487091 C-41.26692114 227.20730474 -49.3432472 227.15653722 -57.42008615 227.07439661 C-63.10770928 227.01852237 -68.79509455 226.98962338 -74.4829824 226.9803977 C-77.87622751 226.97415401 -81.26844057 226.95615956 -84.66138458 226.90901184 C-88.45107184 226.86286075 -92.23841476 226.86080052 -96.02832031 226.86914062 C-97.14341476 226.84554474 -98.25850922 226.82194885 -99.40739441 226.79763794 C-106.16186734 226.86950899 -109.77926881 228.03143651 -114.63929367 232.79851532 C-118.23428845 237.23381334 -119.47187122 241.50811705 -119.1015625 247.1796875 C-118.13892159 253.17290347 -116.00243054 257.97263146 -111.5390625 262.1171875 C-107.30055811 264.90567723 -104.00455482 264.82482312 -99.04589844 264.8215332 C-98.2066835 264.82500763 -97.36746857 264.82848206 -96.50282288 264.83206177 C-94.67653824 264.83942426 -92.85024463 264.84476701 -91.02394867 264.84835243 C-88.1320416 264.85550933 -85.24030506 264.87117073 -82.34844971 264.88969421 C-74.12473918 264.94219558 -65.90112055 264.99013166 -57.67724609 265.00561523 C-52.64972686 265.01570241 -47.62263417 265.04504799 -42.59528351 265.08693504 C-40.68000771 265.09924187 -38.76467164 265.10436688 -36.8493576 265.10213661 C-34.16571136 265.09978103 -31.48328584 265.12196991 -28.79980469 265.1496582 C-28.01100418 265.14305679 -27.22220367 265.13645538 -26.40950012 265.12965393 C-21.23259853 265.21718412 -18.27913001 266.27255126 -14.1640625 269.6796875 C-12.26482624 272.73498061 -12.1640625 274.56495532 -12.1640625 278.1796875 C-13.39505601 282.4881648 -15.54411901 284.2920865 -19.1640625 286.6796875 C-21.6822786 287.74445496 -24.07900791 288.65338109 -26.6640625 289.4921875 C-49.49021173 297.535763 -68.54326881 312.73968058 -79.1640625 334.6796875 C-82.53777766 342.75858404 -83.76869186 350.83357367 -84.39404297 359.50097656 C-84.83746454 364.93980048 -86.02620647 368.46547947 -89.9140625 372.4921875 C-93.16577814 374.20837076 -95.53866412 374.06130838 -99.1640625 373.6796875 C-102.7027619 372.02829445 -103.97476403 370.96363521 -106.1640625 367.6796875 C-108.33989319 345.79487879 -101.51221458 324.02539287 -88.1640625 306.6796875 C-82.37803653 299.70133696 -76.045926 293.56532139 -69.1640625 287.6796875 C-70.35370605 287.6703418 -71.54334961 287.66099609 -72.76904297 287.65136719 C-77.22367471 287.61120308 -81.67763486 287.54537324 -86.13183594 287.47216797 C-88.05199493 287.44411056 -89.97226614 287.42282101 -91.89257812 287.40869141 C-112.32020931 287.24943233 -112.32020931 287.24943233 -120.1640625 282.6796875 C-121.1953125 282.1021875 -122.2265625 281.5246875 -123.2890625 280.9296875 C-123.9078125 280.5171875 -124.5265625 280.1046875 -125.1640625 279.6796875 C-125.41027344 280.5665625 -125.65648437 281.4534375 -125.91015625 282.3671875 C-129.03930322 290.63359444 -137.19028199 298.00134262 -145.1640625 301.6796875 C-157.82268371 305.76408248 -169.13305807 305.4026425 -181.1640625 299.6796875 C-190.04874891 294.49951567 -195.94981778 286.38973569 -199.1640625 276.6796875 C-199.69798191 273.98317015 -199.9640752 271.42951288 -200.1640625 268.6796875 C-201.3190625 269.1746875 -202.4740625 269.6696875 -203.6640625 270.1796875 C-208.19518558 271.69725412 -212.54588878 271.98341197 -217.2890625 271.9921875 C-217.95744141 271.99734375 -218.62582031 272.0025 -219.31445312 272.0078125 C-223.96170245 271.94371251 -227.79150068 271.10502908 -232.1640625 269.6796875 C-233.18225628 305.88213308 -227.60954637 342.06109726 -202.33203125 369.55859375 C-198.21280016 373.58876038 -193.68779588 377.11859381 -189.1640625 380.6796875 C-187.80162812 381.75260457 -186.4461115 382.83444029 -185.1015625 383.9296875 C-184.57433594 384.34734375 -184.04710937 384.765 -183.50390625 385.1953125 C-179.93553345 389.14861181 -179.91693974 393.66819114 -179.93359375 398.765625 C-179.93368942 399.47558121 -179.9337851 400.18553741 -179.93388367 400.91700745 C-179.93765439 403.29639436 -179.95678035 405.67538356 -179.9765625 408.0546875 C-179.98349379 409.73901199 -179.98999279 411.42333831 -179.99609375 413.10766602 C-180.11689085 437.30082621 -180.67552559 461.49182131 -181.1640625 485.6796875 C-179.87668686 485.67302567 -178.58931122 485.66636383 -177.26292419 485.65950012 C-165.12431151 485.59865689 -152.98572981 485.55369933 -140.84699917 485.52425098 C-134.60651221 485.5086023 -128.36614847 485.48737825 -122.12573242 485.45336914 C-116.10218661 485.42074777 -110.07875925 485.40282848 -104.05513191 485.39505577 C-101.75825194 485.3895173 -99.46137836 485.37870203 -97.16454887 485.36249733 C-93.94476237 485.34068658 -90.72546386 485.33772216 -87.50561523 485.33911133 C-86.08465042 485.32293259 -86.08465042 485.32293259 -84.63497925 485.306427 C-79.04121427 485.33250227 -75.10247651 485.98491788 -70.1640625 488.6796875 C-67.89363533 491.38955218 -67.24570474 493.13151814 -66.7265625 496.6171875 C-67.28012573 500.4921301 -68.75579781 502.63394098 -71.1640625 505.6796875 C-73.63339552 506.91435401 -75.27773473 506.81645764 -78.04048157 506.83358765 C-79.07094604 506.84218811 -80.10141052 506.85078857 -81.1631012 506.85964966 C-82.86574379 506.86603958 -82.86574379 506.86603958 -84.6027832 506.87255859 C-85.79473297 506.88073608 -86.98668274 506.88891357 -88.2147522 506.89733887 C-92.1731024 506.92222366 -96.13144515 506.93886629 -100.08984375 506.953125 C-101.45239964 506.95848473 -102.81495546 506.96386224 -104.17751122 506.96925735 C-109.84529485 506.99088585 -115.51307563 507.00962262 -121.18089008 507.02087975 C-129.3041248 507.03711973 -137.42688124 507.07029817 -145.54993564 507.12728059 C-151.26125958 507.16597926 -156.9724556 507.18551229 -162.68390721 507.19080031 C-166.09530356 507.19445397 -169.5061898 507.20647513 -172.91744423 507.23890305 C-176.72438838 507.27040351 -180.53011878 507.27061328 -184.3371582 507.26318359 C-185.46618057 507.27958893 -186.59520294 507.29599426 -187.75843811 507.31289673 C-195.41063385 507.25162694 -195.41063385 507.25162694 -199.34074402 504.26821899 C-202.62854431 499.60058979 -202.21000969 495.91956592 -202.05541992 490.37158203 C-202.00909441 488.3683509 -201.9634043 486.365105 -201.91825867 484.36184692 C-201.89305334 483.2954108 -201.86784801 482.22897469 -201.84187889 481.13022232 C-201.69288894 474.29783264 -201.61215446 467.46423722 -201.52082348 460.63087654 C-201.43672214 454.62818017 -201.32746624 448.62802065 -201.1628418 442.62695312 C-201.00492707 436.82133688 -200.91671513 431.01828847 -200.87471962 425.21072006 C-200.84648008 423.00404894 -200.79342654 420.79754251 -200.71440697 418.59210587 C-199.86760738 405.82581964 -199.86760738 405.82581964 -205.16738892 394.78314209 C-208.03053354 392.13588093 -211.11953365 389.99193414 -214.40378761 387.90397263 C-234.88127199 373.66172005 -245.97003764 344.06860315 -250.3203125 320.66015625 C-252.67867338 307.23540302 -254.30366767 294.06101078 -254.34106445 280.41601562 C-254.34763565 279.34943222 -254.35420685 278.28284882 -254.36097717 277.1839447 C-254.38051271 273.69294136 -254.39232382 270.20198047 -254.40234375 266.7109375 C-254.40641928 265.51014053 -254.4104948 264.30934357 -254.41469383 263.07215881 C-254.43546317 256.72470274 -254.44980813 250.37726774 -254.45922852 244.02978516 C-254.47031722 237.49670654 -254.50477219 230.96396617 -254.54440022 224.43100739 C-254.5705933 219.38307074 -254.57892242 214.33521481 -254.58250999 209.28721619 C-254.58736321 206.87920325 -254.5989408 204.47119361 -254.61754799 202.06324768 C-254.64201257 198.68967956 -254.64096149 195.31698986 -254.6340332 191.94335938 C-254.64684326 190.96225693 -254.65965332 189.98115448 -254.67285156 188.97032166 C-254.59929559 179.08496382 -251.65747661 170.38698677 -245.28515625 162.75390625 C-236.38606261 154.05147766 -226.66569658 151.26450031 -214.5859375 151.31396484 C-204.42088037 151.55399761 -197.26050054 155.81270341 -189.1640625 161.6796875 C-188.7515625 161.29296875 -188.3390625 160.90625 -187.9140625 160.5078125 C-179.63096429 153.03823287 -171.4561214 149.96979969 -160.1640625 149.6796875 C-158.07647203 149.9761344 -155.99398764 150.31001548 -153.91699219 150.67333984 C-152.83891296 150.85988129 -151.76083374 151.04642273 -150.65008545 151.23861694 C-149.41950409 151.45694687 -149.41950409 151.45694687 -148.1640625 151.6796875 C-149.13768405 143.27036684 -150.11165778 134.86108706 -151.08602524 126.4518528 C-151.62649932 121.78721263 -152.16672893 117.12254424 -152.70675659 112.45785236 C-153.0574005 109.42973867 -153.40836342 106.40166199 -153.75933838 103.37358665 C-154.02429351 101.08636051 -154.28876448 98.7990787 -154.55322266 96.51179504 C-155.45420291 88.72941858 -156.36862355 80.9488925 -157.3046875 73.1706543 C-157.58069184 70.86616818 -157.85647048 68.56165514 -158.13220978 66.2571373 C-158.39010606 64.11225982 -158.65198159 61.96789379 -158.91400146 59.82351685 C-162.68649087 28.54556159 -162.68649087 28.54556159 -153.0390625 14.9296875 C-147.18706391 7.95230457 -139.28385273 2.17298648 -130.1640625 0.6796875 C-117.80040522 -0.35492817 -106.9202237 0.88366635 -97.0078125 8.98828125 C-85.38460431 19.65109724 -83.23573241 31.0596855 -80.7890625 46.0546875 C-80.49195317 47.82050623 -80.19367919 49.58612937 -79.89428711 51.3515625 C-79.28049228 54.98047575 -78.67307601 58.61036847 -78.07080078 62.24121094 C-77.19216206 67.52864248 -76.28961427 72.81175785 -75.37890625 78.09375 C-75.23807617 78.91072357 -75.09724609 79.72769714 -74.95214844 80.56942749 C-74.67711523 82.16455979 -74.40203104 83.7596833 -74.12689209 85.35479736 C-73.49132045 89.04584162 -72.86060728 92.73771238 -72.23046875 96.4296875 C-71.9202478 98.24726563 -71.9202478 98.24726563 -71.60375977 100.1015625 C-71.45865967 100.95234375 -71.31355957 101.803125 -71.1640625 102.6796875 C-70.8340625 102.6796875 -70.5040625 102.6796875 -70.1640625 102.6796875 C-69.97067291 101.25054268 -69.97067291 101.25054268 -69.77337646 99.79252625 C-68.55125633 90.77317614 -67.31616222 81.75568345 -66.06864548 72.73980999 C-65.42783573 68.10562901 -64.79146612 63.47093174 -64.16552734 58.8347168 C-63.5602493 54.35280169 -62.9429382 49.87268864 -62.31757355 45.39353371 C-62.08214489 43.69227644 -61.8509126 41.99043253 -61.62413788 40.28800011 C-59.55223233 24.77084261 -56.75035678 11.34941034 -44.02734375 0.99609375 C-31.1155518 -8.12607373 -13.30216847 -8.11576343 0 0 Z M-33.1640625 19.6796875 C-36.24879483 23.78835527 -37.77286748 27.00130727 -38.62890625 32.05395508 C-38.74395004 32.72392171 -38.85899384 33.39388834 -38.9775238 34.08415699 C-40.91512796 45.73302089 -42.46698998 57.45019971 -44.09347534 69.1459713 C-44.73608298 73.76586222 -45.38604352 78.38470114 -46.03735352 83.00337219 C-47.8865949 96.12328634 -49.73005635 109.24399022 -51.55761719 122.36694336 C-52.57115143 129.64426355 -53.59267791 136.92041486 -54.62314892 144.19535667 C-55.27267682 148.78400378 -55.91242406 153.37387311 -56.54495239 157.96489275 C-56.93999103 160.81450994 -57.34444078 163.66273158 -57.75159073 166.5106411 C-58.02693126 168.45628392 -58.29108996 170.40349892 -58.55490112 172.35073853 C-58.72297272 173.51247086 -58.89104431 174.67420319 -59.06420898 175.87113953 C-59.20503403 176.87815761 -59.34585907 177.88517569 -59.49095154 178.92270947 C-60.23866765 181.98526085 -61.34797573 184.1130066 -63.1640625 186.6796875 C-65.47684031 187.83607641 -66.96497471 187.87837678 -69.5390625 187.9296875 C-70.69535156 187.96835937 -70.69535156 187.96835937 -71.875 188.0078125 C-74.92916902 187.57001353 -75.97713395 186.8894781 -78.1640625 184.6796875 C-79.01581546 181.85404963 -79.60767175 179.26775906 -80.09765625 176.3762207 C-80.25874374 175.50220517 -80.41983124 174.62818964 -80.58580017 173.72768879 C-81.13281166 170.71500606 -81.65065164 167.69827169 -82.1640625 164.6796875 C-82.353172 163.58478878 -82.54228149 162.48989006 -82.73712158 161.36181259 C-84.03721163 153.81443502 -85.29469943 146.26029338 -86.53903198 138.70357323 C-87.24071612 134.4439128 -87.94984393 130.18551065 -88.66040039 125.92732239 C-88.90562975 124.4572143 -89.15085371 122.9871053 -89.39607239 121.51699543 C-89.51862711 120.78229704 -89.64118183 120.04759864 -89.76745033 119.29063666 C-91.41469029 109.41225425 -93.05591425 99.53290911 -94.68261719 89.65112305 C-95.78874093 82.93208496 -96.90464914 76.21475078 -98.03166485 69.49918443 C-98.62486866 65.96194675 -99.21306297 62.42404107 -99.78909302 58.88396263 C-100.42920775 54.95030624 -101.09069233 51.02040744 -101.75390625 47.09057617 C-101.93895721 45.93156799 -102.12400818 44.77255981 -102.31466675 43.57843018 C-103.9073964 34.31863338 -106.42359956 28.27917133 -114.1640625 22.6796875 C-119.18268661 21.0068128 -124.44366368 20.64621401 -129.45703125 22.55078125 C-134.06670069 25.18858459 -137.70662772 28.42576056 -139.1640625 33.6796875 C-139.79718782 42.53421826 -138.82141603 51.31307379 -137.71118164 60.08789062 C-137.47405055 62.04088814 -137.23692168 63.99388593 -136.99987495 65.94689369 C-136.74662189 68.0213732 -136.48958977 70.09535311 -136.231493 72.16923523 C-135.68831084 76.53735251 -135.15829954 80.90701062 -134.63023376 85.27697754 C-133.22135493 96.91951906 -131.79588465 108.56001726 -130.36220306 120.19952917 C-129.41968824 127.85203417 -128.48468055 135.50538072 -127.56267828 143.16038656 C-127.12651808 146.77764675 -126.68583557 150.39421015 -126.23292732 154.00941467 C-123.86575022 172.92215628 -122.47088376 191.62083571 -122.1640625 210.6796875 C-121.47820666 210.39727077 -120.79235083 210.11485405 -120.08571148 209.82387924 C-113.82119296 207.37415555 -108.54306449 206.09072456 -101.8371582 206.13378906 C-100.9772377 206.12345139 -100.1173172 206.11311371 -99.2313385 206.10246277 C-96.43397548 206.07333985 -93.63734554 206.07154214 -90.83984375 206.0703125 C-88.88256984 206.05531017 -86.9253085 206.03857876 -84.96806335 206.02020264 C-79.8504677 205.97674731 -74.73304276 205.95657865 -69.61529541 205.94146729 C-64.37949622 205.92181713 -59.14387929 205.87985627 -53.90820312 205.83984375 C-43.66021277 205.76477825 -33.41226368 205.71434392 -23.1640625 205.6796875 C-20.71392261 187.08499435 -18.72915296 168.45026527 -16.8309443 149.79317737 C-16.50385766 146.58147322 -16.17506365 143.36994469 -15.84630269 140.15841156 C-15.07143239 132.58868558 -14.29931507 125.01868248 -13.52905273 117.44848633 C-12.73698936 109.66448483 -11.94030361 101.88096598 -11.14140445 94.09766334 C-10.45088203 87.36872473 -9.76310499 80.63950941 -9.07754582 73.91006333 C-8.67000861 69.90989293 -8.26147157 65.90983145 -7.85030556 61.91003227 C-7.46543552 58.16481006 -7.08400898 54.41925268 -6.70520401 50.67341232 C-6.50004246 48.65298069 -6.29140758 46.6329027 -6.08265686 44.61283875 C-4.41036301 31.52036621 -4.41036301 31.52036621 -9.1640625 19.6796875 C-12.90813762 15.93561238 -16.04135597 15.38256697 -21.1640625 15.1796875 C-26.28127244 15.36968292 -29.34476078 16.05135087 -33.1640625 19.6796875 Z M-175.4140625 178.1171875 C-178.93566376 183.27381792 -179.45880184 187.71845536 -179.4387207 193.86303711 C-179.44383163 194.67342941 -179.44894257 195.48382172 -179.45420837 196.31877136 C-179.4680756 198.98993372 -179.46714982 201.66083724 -179.46484375 204.33203125 C-179.46873215 206.19381302 -179.47306712 208.05559391 -179.47782898 209.91737366 C-179.48528494 213.81693398 -179.48500435 217.71640375 -179.47973633 221.6159668 C-179.47394143 226.60720202 -179.49087621 231.59806619 -179.514081 236.58924007 C-179.5288295 240.43345803 -179.52968854 244.27758684 -179.52657127 248.12182808 C-179.52708389 249.96178485 -179.53231037 251.80174668 -179.54238319 253.64167595 C-179.55475247 256.21700879 -179.54795326 258.7916216 -179.53637695 261.36694336 C-179.54784256 262.50099609 -179.54784256 262.50099609 -179.55953979 263.65795898 C-179.50430723 269.23145237 -178.20679147 273.20301092 -174.65625 277.5078125 C-170.23217354 281.39758021 -166.13566581 283.51964453 -160.1640625 283.6796875 C-153.99606495 282.86408452 -150.20314618 280.39512526 -146.35546875 275.59375 C-143.31030767 270.70152401 -142.86664748 266.28556465 -142.87353516 260.61987305 C-142.86681793 259.8224469 -142.86010071 259.02502075 -142.85317993 258.20343018 C-142.83422495 255.57435832 -142.83027688 252.94554214 -142.828125 250.31640625 C-142.82169486 248.4818359 -142.81496633 246.64726658 -142.80795288 244.81269836 C-142.79598603 240.96861393 -142.7922714 237.12461932 -142.79345703 233.28051758 C-142.79366008 228.36785494 -142.76637032 223.45577173 -142.73191261 218.54324627 C-142.70961403 214.75384403 -142.70562041 210.96458052 -142.70667648 207.1751194 C-142.70432451 205.36471372 -142.6955238 203.55430399 -142.68001175 201.74396324 C-142.66029339 199.20479809 -142.6662123 196.66687304 -142.67822266 194.12768555 C-142.66136414 193.01844475 -142.66136414 193.01844475 -142.64416504 191.88679504 C-142.71608058 185.86755908 -144.42066507 180.51379528 -148.68218422 176.11136913 C-153.94166062 171.62989809 -157.42497257 171.33379908 -164.1796875 171.3984375 C-169.42369769 171.89263741 -171.96995528 174.38607135 -175.4140625 178.1171875 Z M-230.4765625 179.3046875 C-232.97737387 182.82434795 -233.29768884 184.66801372 -233.34106445 188.95214844 C-233.35389969 190.05379333 -233.36673492 191.15543823 -233.37995911 192.29046631 C-233.38734604 193.48625305 -233.39473297 194.68203979 -233.40234375 195.9140625 C-233.4104155 197.13998108 -233.41848724 198.36589966 -233.42680359 199.62896729 C-233.44065487 202.22821636 -233.45137233 204.8274837 -233.45922852 207.42675781 C-233.47244307 211.39936822 -233.52031004 215.37136532 -233.56445312 219.34375 C-233.57458059 221.86718137 -233.58309652 224.39061983 -233.58984375 226.9140625 C-233.60735184 228.10175232 -233.62485992 229.28944214 -233.64289856 230.51312256 C-233.62620184 236.87235849 -233.52569874 240.89110411 -229.1640625 245.6796875 C-224.17068132 250.07861854 -221.25391023 251.03645087 -214.703125 250.9609375 C-209.72803537 250.40985065 -207.03886847 247.67271049 -203.8515625 244.0546875 C-201.35075113 240.53502705 -201.03043616 238.69136128 -200.98706055 234.40722656 C-200.97422531 233.30558167 -200.96139008 232.20393677 -200.94816589 231.06890869 C-200.94077896 229.87312195 -200.93339203 228.67733521 -200.92578125 227.4453125 C-200.9177095 226.21939392 -200.90963776 224.99347534 -200.90132141 223.73040771 C-200.88747013 221.13115864 -200.87675267 218.5318913 -200.86889648 215.93261719 C-200.85568193 211.96000678 -200.80781496 207.98800968 -200.76367188 204.015625 C-200.75354441 201.49219363 -200.74502848 198.96875517 -200.73828125 196.4453125 C-200.72077316 195.25762268 -200.70326508 194.06993286 -200.68522644 192.84625244 C-200.70192316 186.48701651 -200.80242626 182.46827089 -205.1640625 177.6796875 C-210.15744368 173.28075646 -213.07421477 172.32292413 -219.625 172.3984375 C-224.60008963 172.94952435 -227.28925653 175.68666451 -230.4765625 179.3046875 Z " fill="#000000" transform="translate(354.1640625,5.3203125)"/>
<path d="M0 0 C3.125 1.875 3.125 1.875 5 5 C5.98876625 10.02622846 5.7769173 13.70513784 3.125 18.125 C-1.27686274 20.76611764 -4.99147509 21.01979818 -10 20 C-13.41421647 17.63095184 -14.64346607 16.02503506 -16 12.125 C-16 8.09693738 -14.89929459 5.52726138 -13 2 C-8.74070434 -0.83953044 -4.99617057 -0.73987876 0 0 Z " fill="#000000" transform="translate(327,492)"/>
</svg>
