<?xml version="1.0" encoding="UTF-8"?>
<svg version="1.1" xmlns="http://www.w3.org/2000/svg" width="512" height="512">
<path d="M0 0 C8.3811466 6.14697928 15.1423882 13.52982438 17 24 C17.55674847 34.50241247 16.28672391 44.49825306 14.61328125 54.82763672 C14.35620593 56.4650046 14.10007921 58.10252165 13.84481812 59.74017334 C13.15606427 64.14158299 12.4542269 68.54081288 11.7498436 72.93974447 C11.01339175 77.55359066 10.28923701 82.16936661 9.5637207 86.78494263 C8.19109935 95.50526328 6.80758527 104.22381831 5.42005253 112.94177735 C3.83960891 122.87527283 2.27146556 132.81069786 0.70430183 142.74629569 C-2.51687929 163.16635818 -5.75333493 183.58397486 -9 204 C-8.42327042 204.05403992 -7.84654083 204.10807983 -7.25233459 204.16375732 C-4.61707915 204.41278284 -1.98237936 204.66728147 0.65234375 204.921875 C1.55964233 205.00679199 2.46694092 205.09170898 3.4017334 205.17919922 C17.69552335 206.57244497 29.61328885 211.08781599 39.0625 222.359375 C50.9047974 238.49928032 51.93531742 259.53660174 49.23071289 278.76220703 C43.25882833 315.28210507 26.22876403 350.15131876 2 378 C1.14792969 378.98613281 0.29585938 379.97226562 -0.58203125 380.98828125 C-14.88666825 397.23498127 -14.88666825 397.23498127 -23.01342773 400.91065979 C-25.40479656 402.05412512 -27.1234153 403.11691204 -29 405 C-30.15477217 408.81481435 -30.00078967 412.50973758 -29.89453125 416.46875 C-29.89829269 417.58181519 -29.90205414 418.69488037 -29.90592957 419.8416748 C-29.91223622 423.39570041 -29.86516196 426.94639952 -29.8125 430.5 C-29.78629424 434.05292391 -29.77146122 437.60530426 -29.77262878 441.1583252 C-29.77059985 443.36764266 -29.75131751 445.57702735 -29.71284485 447.78601074 C-29.67399933 454.26013485 -30.12120908 458.01839512 -34.75 462.8125 C-38.00171564 464.52868326 -40.37460162 464.38162088 -44 464 C-47.5386994 462.34860695 -48.81070153 461.28394771 -51 458 C-51.26742554 455.28115845 -51.26742554 455.28115845 -51.29052734 451.95556641 C-51.30328705 450.71062408 -51.31604675 449.46568176 -51.32919312 448.18301392 C-51.33225077 446.82253169 -51.33447853 445.46204738 -51.3359375 444.1015625 C-51.34236532 442.70535139 -51.34909367 441.30914163 -51.35610962 439.91293335 C-51.36808471 436.98586912 -51.37179026 434.05892293 -51.37060547 431.13183594 C-51.37040236 427.38683092 -51.39769372 423.64258549 -51.43214989 419.89776039 C-51.45442388 417.01348416 -51.45844286 414.12939051 -51.45738602 411.24503708 C-51.45974165 409.86476399 -51.46856324 408.48448584 -51.48405075 407.10429764 C-51.50371494 405.17070587 -51.49534905 403.23689103 -51.48583984 401.30322266 C-51.48868988 400.2041861 -51.49153992 399.10514954 -51.49447632 397.97280884 C-50.88056428 394.2819483 -49.57640485 392.66733294 -47 390 C-44.80836567 388.48738588 -42.65793715 387.10251975 -40.375 385.75 C-33.93361245 381.76466305 -28.43795078 377.29366021 -23 372 C-22.19175781 371.25363281 -21.38351562 370.50726563 -20.55078125 369.73828125 C5.92658375 344.59101936 26.2326937 302.72915328 28.203125 266.23828125 C28.34688743 254.19817756 27.69875122 242.26948377 19 233 C10.7782479 226.91174053 0.15789481 226.7010111 -9.65087891 226.70947266 C-10.78211685 226.70275543 -11.9133548 226.69603821 -13.07887268 226.68911743 C-16.79481469 226.67021584 -20.51057551 226.66621791 -24.2265625 226.6640625 C-26.82009962 226.65763178 -29.41363602 226.65090322 -32.00717163 226.64389038 C-37.43221022 226.63193916 -42.85717744 226.62812161 -48.28222656 226.62939453 C-54.54048484 226.63059793 -60.79839939 226.60944328 -67.05657065 226.5779072 C-73.09808598 226.54855596 -79.13941507 226.5414195 -85.1810112 226.54261398 C-87.74303979 226.54025554 -90.30507101 226.53141839 -92.86705399 226.51594925 C-96.44763045 226.49634422 -100.02731927 226.50210553 -103.60791016 226.51416016 C-104.66264023 226.50292114 -105.7173703 226.49168213 -106.80406189 226.48010254 C-113.09806993 226.5339215 -116.86324802 227.28988302 -122 231 C-126.33306776 235.4501777 -127.72565306 239.64845476 -128.4375 245.75 C-128.26203233 252.26737055 -124.94313276 258.14724551 -120.3125 262.5625 C-116.07879155 265.19426471 -112.75355121 265.15133455 -107.8659668 265.15771484 C-107.02514557 265.16279556 -106.18432434 265.16787628 -105.31802368 265.17311096 C-103.48846675 265.1838262 -101.65889662 265.19244184 -99.82932091 265.19923019 C-96.93349188 265.21100143 -94.03781318 265.23045007 -91.14204407 265.25234985 C-82.9073283 265.31402292 -74.67262707 265.36800866 -66.43774414 265.40136719 C-61.4038013 265.42231028 -56.37013095 265.45761261 -51.33634377 265.50212479 C-49.41745016 265.51629003 -47.49850832 265.52500841 -45.57956505 265.52817917 C-42.8934923 265.53308679 -40.20814266 265.55624136 -37.5222168 265.58349609 C-36.72982101 265.58048996 -35.93742523 265.57748383 -35.12101746 265.5743866 C-30.57063721 265.64296855 -27.61965018 266.18433015 -24 269 C-21.83767119 271.75883331 -21.06057237 273.51542103 -20.625 277 C-21.06234036 280.49872285 -21.91671554 282.16696821 -24 285 C-26.48925781 286.41870117 -26.48925781 286.41870117 -29.453125 287.54296875 C-30.54036865 287.9716626 -31.6276123 288.40035645 -32.74780273 288.84204102 C-33.90352783 289.28604248 -35.05925293 289.73004395 -36.25 290.1875 C-58.63231871 299.2314337 -77.02283702 312.31120248 -87.875 334.5 C-91.32657211 342.71236123 -92.9754426 351.07046233 -93.5 359.9375 C-93.7824409 364.61472123 -94.23445575 368.0644178 -97 372 C-101.01858595 374.6790573 -104.27641721 374.69610694 -109 374 C-111.87029869 372.20606332 -113.49131638 371.01736724 -115 368 C-116.7108878 344.44023363 -109.83874606 321.8743613 -94.32421875 303.83203125 C-89.22834388 298.0962093 -83.82783923 292.98419186 -78 288 C-79.18964355 287.9906543 -80.37928711 287.98130859 -81.60498047 287.97167969 C-86.05961221 287.93151558 -90.51357236 287.86568574 -94.96777344 287.79248047 C-96.88793243 287.76442306 -98.80820364 287.74313351 -100.72851562 287.72900391 C-115.97315593 287.61015276 -127.23780185 286.39294243 -138.65234375 275.41015625 C-147.38765947 265.963568 -150.49287109 254.82392571 -150.24609375 242.23828125 C-149.41482411 231.29982832 -144.10035465 221.11406174 -136.125 213.6015625 C-127.48789836 207.09198222 -119.14884407 204.83794993 -108.5378418 204.88647461 C-107.278536 204.88625557 -107.278536 204.88625557 -105.99378967 204.8860321 C-103.22890608 204.88672674 -100.46409052 204.89449812 -97.69921875 204.90234375 C-95.77822405 204.90420952 -93.85722887 204.90563268 -91.93623352 204.90663147 C-86.88759033 204.91044409 -81.83897604 204.92026367 -76.79034424 204.93133545 C-71.63562409 204.94157655 -66.48089927 204.94613487 -61.32617188 204.95117188 C-51.21743468 204.96188706 -41.10872114 204.97934782 -31 205 C-30.82572825 203.43500936 -30.82572825 203.43500936 -30.64793587 201.83840275 C-29.5218308 191.89905697 -28.15150114 182.03010043 -26.56982422 172.15209961 C-26.33277324 170.65525062 -26.09603802 169.1583516 -25.85958862 167.66140747 C-25.35618225 164.47802091 -24.85080039 161.29495705 -24.34383774 158.11213493 C-23.54136909 153.07269551 -22.74472774 148.03234496 -21.94900513 142.99183655 C-19.68762874 128.67289923 -17.41807781 114.35526217 -15.14404297 100.03833008 C-13.88332206 92.10071662 -12.62704467 84.16241214 -11.37545025 76.2233544 C-10.58605705 71.21788611 -9.79114333 66.21333658 -8.99202323 61.20941246 C-8.4964496 58.097986 -8.00603705 54.98576221 -7.51704788 51.87329483 C-7.29022986 50.43628339 -7.06131481 48.99960104 -6.83009338 47.56329155 C-4.2763823 35.39300895 -4.2763823 35.39300895 -6.6875 23.6875 C-9.71577333 20.16815531 -12.25126515 18.2612511 -16.90234375 17.56640625 C-21.58391954 17.56038106 -25.1565495 17.63852121 -29.5 19.5 C-36.00922543 26.00922543 -37.29057489 34.62421325 -39.05273438 43.32226562 C-39.33157891 44.65727612 -39.61141742 45.99207932 -39.89216614 47.32669067 C-40.64788605 50.93262236 -41.38999284 54.5412349 -42.12979317 58.1504612 C-42.9109247 61.94837435 -43.70531775 65.74351106 -44.49841309 69.53894043 C-46.00027397 76.73560669 -47.49132758 83.93446392 -48.97800398 91.13428068 C-51.63302027 103.99017835 -54.30776237 116.84198224 -56.98437166 129.69339895 C-57.92072561 134.19122223 -58.85274358 138.68991678 -59.7813859 143.18933821 C-61.49015989 151.46623683 -63.22303344 159.73741519 -65 168 C-65.29981277 169.40045059 -65.29981277 169.40045059 -65.60568237 170.82919312 C-66.10622797 173.12976328 -66.62739031 175.42396845 -67.16210938 177.71679688 C-67.42745483 178.87143433 -67.69280029 180.02607178 -67.96618652 181.21569824 C-69.13148165 184.35411086 -70.43139887 185.88674819 -73 188 C-76.83678207 189.39588692 -80.0667196 189.39405172 -83.8125 187.8125 C-86.61239603 185.49258614 -88.66150868 183.45214991 -89.503479 179.84004211 C-89.5950528 178.6571888 -89.5950528 178.6571888 -89.68847656 177.45043945 C-89.80480942 176.07493675 -89.80480942 176.07493675 -89.92349243 174.67164612 C-90.03097305 173.15775551 -90.03097305 173.15775551 -90.140625 171.61328125 C-90.22831146 170.52816757 -90.31599792 169.44305389 -90.40634155 168.32505798 C-90.59797874 165.92840134 -90.78328134 163.53123215 -90.9631958 161.13366699 C-91.25421366 157.25636032 -91.56159727 153.38063783 -91.87255859 149.50488281 C-92.98742365 135.53615974 -94.03447857 121.56218949 -95.08681488 107.58864498 C-95.69663582 99.49685829 -96.31406616 91.40566655 -96.93494415 83.31472111 C-97.39601435 77.29356623 -97.84491009 71.27165488 -98.28480339 65.24891758 C-98.56487891 61.44605539 -98.85476141 57.64398376 -99.14705276 53.84204292 C-99.28180584 52.06205736 -99.4124385 50.28175434 -99.5386467 48.5011425 C-99.71351648 46.04178242 -99.90315534 43.58396817 -100.09619141 41.12597656 C-100.14301685 40.41666142 -100.1898423 39.70734629 -100.2380867 38.97653675 C-100.66624462 33.81107453 -101.92258677 29.70352765 -104 25 C-108.93956233 21.07368122 -113.81239598 20.58050142 -120 21 C-125.8289044 22.90946868 -130.08861616 25.55726383 -133.12231445 31.02148438 C-134.42383875 35.43834013 -134.26425843 39.70045005 -134.23046875 44.28125 C-134.23032524 45.81757332 -134.23032524 45.81757332 -134.23017883 47.38493347 C-134.22643212 50.75673764 -134.20739282 54.12825528 -134.1875 57.5 C-134.18062148 59.86303607 -134.1741156 62.22607325 -134.16796875 64.58911133 C-134.11367242 79.29349363 -133.87139795 93.98809989 -133.5 108.6875 C-133.12069716 124.02019432 -132.81100985 139.35220524 -132.71289062 154.68960571 C-132.69609349 156.87959305 -132.67227853 159.0695389 -132.64111328 161.2593689 C-132.59944348 164.29813295 -132.58350562 167.3359875 -132.57421875 170.375 C-132.54801704 171.72952019 -132.54801704 171.72952019 -132.52128601 173.11140442 C-132.53565174 177.27989665 -132.64316939 179.42973071 -134.90161133 183.0390625 C-138.11653229 186.04339585 -140.37852733 186.19760638 -144.734375 186.5234375 C-148.39707924 185.67722652 -150.67206646 183.84897066 -153 181 C-155.0474421 176.72053586 -156.46172751 172.24429605 -157.90625 167.734375 C-158.35106846 166.39516931 -158.79766204 165.05655209 -159.24591064 163.7184906 C-160.19374152 160.87721957 -161.12947816 158.0323687 -162.05554199 155.18392944 C-163.50531567 150.7247232 -164.98132645 146.274494 -166.46191406 141.82543945 C-168.42311642 135.92580925 -170.37432601 130.02298398 -172.31835938 124.11767578 C-177.01701407 109.85461638 -181.88955747 95.65057721 -186.78712463 81.45478821 C-188.2627975 77.17130741 -189.71048563 72.87966712 -191.13516235 68.57896423 C-191.80596011 66.56269394 -192.48631193 64.54995614 -193.17089844 62.53833008 C-193.97903876 60.16110774 -194.77170911 57.77853135 -195.54394531 55.3894043 C-197.75383236 48.98864578 -200.06156817 44.55085982 -206 41 C-210.79123248 39.40292251 -215.51139363 38.96415521 -220.26171875 40.94140625 C-224.28457993 43.31348151 -227.24042565 45.54931193 -229 50 C-230.06172007 55.74976141 -230.00033649 59.35194442 -228.03515625 64.96875 C-227.81113632 65.62529068 -227.58711639 66.28183136 -227.35630798 66.95826721 C-226.60677799 69.14437391 -225.83445949 71.32172324 -225.0625 73.5 C-224.51965018 75.07155187 -223.97868619 76.64375621 -223.43945312 78.21655273 C-222.57024613 80.74970925 -221.6993134 83.28218457 -220.82217407 85.81260681 C-218.51660879 92.46390317 -216.2738264 99.13451877 -214.05859375 105.81640625 C-213.72598541 106.81958389 -213.39337708 107.82276154 -213.0506897 108.8563385 C-212.37355924 110.89956482 -211.69658846 112.94284406 -211.01977539 114.98617554 C-206.85032685 127.5640203 -202.66000564 140.13439874 -198.34765625 152.6640625 C-198.06497894 153.48545212 -197.78230164 154.30684174 -197.49105835 155.15312195 C-196.18044911 158.95651083 -194.86442132 162.75793003 -193.54101562 166.55688477 C-193.30652206 167.23379364 -193.0720285 167.91070251 -192.83042908 168.60812378 C-192.20969585 170.39996513 -191.58558473 172.19063535 -190.96118164 173.98120117 C-189.59316714 178.27774659 -188.87829297 182.26049045 -188.82299805 186.76757812 C-188.80374519 188.1455658 -188.80374519 188.1455658 -188.78410339 189.5513916 C-188.77671646 190.53474487 -188.76932953 191.51809814 -188.76171875 192.53125 C-188.753647 193.55875366 -188.74557526 194.58625732 -188.73725891 195.64489746 C-188.72344532 197.82021411 -188.71271101 199.99555219 -188.70483398 202.17089844 C-188.69335223 204.37604203 -188.67296139 206.58115868 -188.64331055 208.78613281 C-188.22785069 239.71120084 -188.22785069 239.71120084 -199 251 C-206.93539713 259.01008323 -215.0755194 262.17226448 -226.25 262.25 C-227.33861328 262.2809375 -227.33861328 262.2809375 -228.44921875 262.3125 C-229.17238281 262.31765625 -229.89554688 262.3228125 -230.640625 262.328125 C-231.28547852 262.3374707 -231.93033203 262.34681641 -232.59472656 262.35644531 C-236.26180474 261.81300904 -239.57477676 260.38299886 -243 259 C-242.78416387 264.34940357 -242.55342578 269.69790957 -242.31030273 275.04614258 C-242.22995172 276.85619697 -242.15330562 278.66642059 -242.08081055 280.47680664 C-240.67785507 315.27977803 -234.02074403 349.6746243 -207.47949219 374.41748047 C-204.4249847 377.08190148 -201.2319827 379.55643311 -198 382 C-191.65333062 386.93488521 -191.65333062 386.93488521 -190 391 C-189.75390434 392.99145889 -189.75390434 392.99145889 -189.75949097 395.12554932 C-189.75674164 395.93880676 -189.75399231 396.75206421 -189.75115967 397.58996582 C-189.7619455 398.91490051 -189.7619455 398.91490051 -189.77294922 400.26660156 C-189.77265717 401.20352844 -189.77236511 402.14045532 -189.77206421 403.10577393 C-189.77345689 406.20081868 -189.78901534 409.29562233 -189.8046875 412.390625 C-189.80841785 414.53725045 -189.81126472 416.68387761 -189.81326294 418.83050537 C-189.82089768 424.47925521 -189.84054489 430.12790214 -189.8626709 435.77661133 C-189.88313269 441.54116422 -189.89226538 447.30573375 -189.90234375 453.0703125 C-189.92379086 464.38025354 -189.95792497 475.69011821 -190 487 C-188.71262436 486.99333817 -187.42524872 486.98667633 -186.09886169 486.97981262 C-173.96024901 486.91896939 -161.82166731 486.87401183 -149.68293667 486.84456348 C-143.44244971 486.8289148 -137.20208597 486.80769075 -130.96166992 486.77368164 C-124.93812411 486.74106027 -118.91469675 486.72314098 -112.89106941 486.71536827 C-110.59418944 486.7098298 -108.29731586 486.69901453 -106.00048637 486.68280983 C-102.78069987 486.66099908 -99.56140136 486.65803466 -96.34155273 486.65942383 C-94.92058792 486.64324509 -94.92058792 486.64324509 -93.47091675 486.6267395 C-87.87715177 486.65281477 -83.93841401 487.30523038 -79 490 C-76.72957283 492.70986468 -76.08164224 494.45183064 -75.5625 497.9375 C-76.11606323 501.8124426 -77.59173531 503.95425348 -80 507 C-82.47851002 508.23925501 -84.14091793 508.13684364 -86.91438293 508.15390015 C-87.95326157 508.16250061 -88.9921402 508.17110107 -90.0625 508.17996216 C-91.7791687 508.18635208 -91.7791687 508.18635208 -93.53051758 508.19287109 C-94.73222092 508.20104858 -95.93392426 508.20922607 -97.17204285 508.21765137 C-101.1628689 508.24253662 -105.15365703 508.25917879 -109.14453125 508.2734375 C-110.51823114 508.2787972 -111.89193097 508.28417471 -113.26563072 508.28956985 C-118.97973757 508.3111984 -124.69384159 508.32993521 -130.40797901 508.34119225 C-138.59777506 508.35743241 -146.78709674 508.39061125 -154.97671396 508.44759309 C-160.73474664 508.48629084 -166.49265244 508.50582468 -172.25081176 508.51111281 C-175.690152 508.51476659 -179.12898631 508.52678904 -182.56818581 508.55921555 C-186.40603184 508.59488197 -190.24328234 508.5909257 -194.08129883 508.58349609 C-195.21967194 508.59990143 -196.35804504 508.61630676 -197.53091431 508.63320923 C-202.20752117 508.59606528 -205.14671875 508.50784639 -209.21461487 506.08676147 C-211.76868262 501.67102068 -211.62306638 498.04473005 -211.48486328 493.02832031 C-211.47767776 492.02767548 -211.47049225 491.02703064 -211.46308899 489.99606323 C-211.44519322 487.82594933 -211.41627809 485.65590459 -211.37762833 483.4860611 C-211.31978437 480.04672269 -211.29811545 476.6089168 -211.28707886 473.16912842 C-211.25088559 463.39132345 -211.162925 453.61468581 -211.01757812 443.83789062 C-210.93115986 437.85362037 -210.89850089 431.8709954 -210.89886093 425.88613129 C-210.88822185 423.61026888 -210.85703225 421.33440339 -210.80459976 419.05912018 C-209.87729231 406.66791746 -209.87729231 406.66791746 -214.36395264 395.70056152 C-217.14062233 393.4182067 -219.86501993 391.73803097 -223 390 C-252.23816919 364.41013618 -261.1920696 327.33470913 -263.81616974 290.14171982 C-264.36469871 280.76717873 -264.32966309 271.37564823 -264.3359375 261.98828125 C-264.34238863 259.67335433 -264.34911857 257.35842816 -264.35610962 255.04350281 C-264.36795733 250.24097805 -264.37180256 245.43852462 -264.37060547 240.63598633 C-264.37040075 234.50911877 -264.39791594 228.38270707 -264.43214989 222.25594807 C-264.45444519 217.49535542 -264.45844251 212.73487313 -264.45738602 207.97423363 C-264.45972976 205.71498198 -264.46848322 203.45572671 -264.48405075 201.19652748 C-264.58268395 185.43505462 -264.63459346 171.99221416 -253 160 C-246.00442562 153.37495392 -237.81970946 150.26495562 -228.30004883 149.45239258 C-227.30797928 149.3664534 -226.31590973 149.28051422 -225.29377747 149.19197083 C-224.5368309 149.12862045 -223.77988434 149.06527008 -223 149 C-225.21068064 142.34192228 -227.42415641 135.68477793 -229.63916016 129.02813721 C-230.41995758 126.68034302 -231.20007085 124.3323212 -231.97949219 121.98406982 C-237.63740894 104.9223299 -237.63740894 104.9223299 -243.54296875 87.9453125 C-243.80197464 87.21387024 -244.06098053 86.48242798 -244.32783508 85.7288208 C-245.48711075 82.45671608 -246.6598714 79.19210687 -247.86254883 75.93554688 C-252.07742489 64.09411041 -253.91782537 51.99602577 -248.7734375 40.18359375 C-242.98346452 28.80490353 -235.27608916 22.51046524 -223.11328125 18.35546875 C-213.45130152 16.73025589 -203.62077387 17.15551626 -195 22 C-194.20980469 22.43570312 -193.41960937 22.87140625 -192.60546875 23.3203125 C-179.29964746 31.39648264 -175.55323263 45.90863947 -170.86328125 59.93359375 C-170.49776657 61.01455826 -170.13225189 62.09552277 -169.75566101 63.20924377 C-168.60396377 66.61733626 -167.45793522 70.02729838 -166.3125 73.4375 C-165.15534936 76.87234694 -163.99699036 80.30678005 -162.83720398 83.74073792 C-162.11980187 85.86590931 -161.40407794 87.99164816 -160.69026184 90.11802673 C-160.36619858 91.07995438 -160.04213531 92.04188202 -159.70825195 93.03295898 C-159.42577103 93.8739061 -159.1432901 94.71485321 -158.85224915 95.58128357 C-157.97009111 98.08488261 -157.0025735 100.54241984 -156 103 C-156.0169693 102.22485046 -156.0339386 101.44970093 -156.05142212 100.65106201 C-156.21041149 93.29691229 -156.35850315 85.94265758 -156.49477577 78.58805466 C-156.56518496 74.80822781 -156.63960395 71.02857399 -156.72363281 67.24902344 C-156.80477777 63.59221688 -156.87480739 59.93534189 -156.93757248 56.27817535 C-156.96322342 54.89247219 -156.99268173 53.50683338 -157.02626419 52.12129974 C-157.43390425 35.05421929 -155.39193865 21.05579714 -143.41015625 8.30859375 C-135.07612768 0.48441164 -124.37042001 -1.40119103 -113.29296875 -1.27734375 C-103.00183895 -0.41059379 -94.23740999 3.2364575 -87.2890625 10.8828125 C-81.83124943 17.67179949 -79.66106657 24.83533308 -78.94140625 33.37890625 C-78.86491348 34.18582413 -78.78842072 34.992742 -78.70960999 35.82411194 C-78.457589 38.54828397 -78.22616014 41.27356235 -78 44 C-77.91659363 44.99747253 -77.83318726 45.99494507 -77.74725342 47.02264404 C-77.02082614 55.80556166 -76.34580657 64.59236138 -75.67456055 73.37963867 C-75.4199912 76.69993344 -75.16135506 80.01989301 -74.90234375 83.33984375 C-74.82628403 84.35328354 -74.7502243 85.36672333 -74.67185974 86.41087341 C-74.59830765 87.35028275 -74.52475555 88.28969208 -74.44897461 89.25756836 C-74.38616806 90.07962265 -74.32336151 90.90167694 -74.25865173 91.74864197 C-74.01067619 93.90707222 -73.57937401 95.90858514 -73 98 C-72.73144196 96.7057309 -72.73144196 96.7057309 -72.4574585 95.38531494 C-70.75879984 87.20536775 -69.05318422 79.02690775 -67.33997726 70.84999466 C-66.45969951 66.64735228 -65.5820066 62.44420634 -64.71044922 58.23974609 C-63.86733197 54.17298163 -63.01712722 50.10775512 -62.16223907 46.0434494 C-61.83927164 44.50204659 -61.5187488 42.96012922 -61.20085907 41.4176712 C-54.84962338 10.63190663 -54.84962338 10.63190663 -41.12890625 1.28515625 C-29.25090529 -5.88523332 -12.30914137 -7.28779322 0 0 Z M-239 176 C-242.95763339 181.99964262 -243.59334624 187.3151118 -243.53125 194.37890625 C-243.5350769 195.34980698 -243.53890381 196.3207077 -243.54284668 197.32102966 C-243.54555491 199.36238652 -243.5382705 201.40377873 -243.52148438 203.44506836 C-243.50003605 206.55726872 -243.52133555 209.66716696 -243.546875 212.77929688 C-243.54423199 214.77083839 -243.53910755 216.76237848 -243.53125 218.75390625 C-243.53934692 219.67700089 -243.54744385 220.60009552 -243.55578613 221.55116272 C-243.46929769 227.55033102 -242.48513951 231.08015538 -239 236 C-233.93474605 240.58284881 -230.63434756 241.47696822 -223.8984375 241.40625 C-219.22710537 240.75150803 -215.99120821 238.60497027 -213 235 C-209.98993533 229.26151142 -209.55737681 224.57731792 -209.6015625 218.15625 C-209.59725723 216.76436462 -209.59725723 216.76436462 -209.59286499 215.34436035 C-209.59083223 213.39118842 -209.59630667 211.43799576 -209.60888672 209.48486328 C-209.62495156 206.50897349 -209.60901106 203.53444171 -209.58984375 200.55859375 C-209.59182632 198.65364286 -209.59567028 196.74869281 -209.6015625 194.84375 C-209.59548981 193.96126587 -209.58941711 193.07878174 -209.5831604 192.16955566 C-209.66074723 185.29597366 -210.8162106 180.519757 -215.4375 175.1875 C-219.74234234 171.51263459 -223.01891357 170.47200829 -228.62109375 170.62890625 C-232.77600123 171.27704453 -236.07365489 172.99219346 -239 176 Z " fill="#000000" transform="translate(363,4)"/>
<path d="M0 0 C3.54281383 2.61860153 4.78669043 4.25341652 6 8.5 C6 13.31804413 4.50968717 15.37848415 1.3125 18.8125 C-2.08364801 20.5564679 -5.3104216 20.68081506 -9 20 C-11.8100346 18.20636089 -13.50940468 16.98119065 -15 14 C-15.43598616 4.98961938 -15.43598616 4.98961938 -13 2 C-8.41193646 -1.09427541 -5.31215291 -1.54535358 0 0 Z " fill="#000000" transform="translate(327,492)"/>
</svg>
