<!DOCTYPE svg PUBLIC "-//W3C//DTD SVG 1.1//EN" "http://www.w3.org/Graphics/SVG/1.1/DTD/svg11.dtd">

<!-- Uploaded to: SVG Repo, www.svgrepo.com, Transformed by: SVG Repo Mixer Tools -->
<svg height="800px" width="800px" version="1.1" id="Capa_1" xmlns="http://www.w3.org/2000/svg" xmlns:xlink="http://www.w3.org/1999/xlink" viewBox="-14.53 -14.53 236.60 236.60" xml:space="preserve" fill="#000000" transform="rotate(0)" stroke="#000000" stroke-width="7.886406000000001">

<g id="SVGRepo_bgCarrier" stroke-width="0"/>

<g id="SVGRepo_tracerCarrier" stroke-linecap="round" stroke-linejoin="round" stroke="#CCCCCC" stroke-width="4.150740000000001"> <g> <path style="fill:#010002;" d="M164.174,125.689c1.696-19.039-11.85-24.25-16.524-25.467c0.276-7.276,4.015-34.922,6.267-51.532 c2.419-17.876,3.021-22.525,2.931-23.577c-0.476-5.468-2.384-9.169-5.672-10.987c-3.339-1.84-7.852-1.442-12.87,1.127 c-2.494,1.281-3.593,6.238-7.623,28.763c-2.205,12.394-7.297,40.874-10.98,45.806c-2.523-7.04-2.781-40.913-2.91-57.466 c-0.1-13.46-0.179-21.19-0.684-23.467c-0.977-4.427-5.526-8.303-10.35-8.822c-3.905-0.465-7.397,1.485-9.334,5.193 c-3.418,3.257-3.93,14.845-4.363,42.417c-0.204,13.174-0.637,40.309-3.135,43.394c-2.09-1.145-5.98-11.878-12.791-54.95 c-2.011-12.737-2.609-16.119-3.378-17.443c-1.367-4.631-6.818-11.091-12.608-11.091c-0.125,0-0.254,0.004-0.39,0.011 c-3.837,0.236-8.672,3.421-9.906,17.329c4.066,53.568,8.013,83.981,8.815,89.954c-1.249,1.474-3.407,3.765-6.678,6.496 c-0.125,0.104-0.2,0.168-0.29,0.251c-13.718,15.164-8.074,25.682-7.831,26.118c10.926,19.115,33.799,46.343,34.021,46.579 c3.003,2.577,4.61,4.975,4.653,6.936c0.029,1.17-0.558,1.875-0.752,2.083l-0.451,0.54l3.203,3.654l0.619-0.533 c0.24-0.218,2.384-2.197,2.362-5.715c-0.014-3.475-2.147-7.108-6.116-10.472c-0.938-1.124-23.051-27.779-33.19-45.523 c-0.039-0.079-3.994-7.967,6.904-20.056c1.113-0.902,4.978-4.126,8.117-8.077l0.673-0.841l-0.161-1.084 c-0.039-0.311-4.452-31.741-8.933-90.28c0.684-7.487,2.688-12.229,5.222-12.386l0.115-0.004c2.885,0,7.24,4.753,7.906,7.852 l0.361,1.668l0.276,0.043c0.583,2.545,1.564,8.75,2.512,14.759c6.374,40.323,10.4,58.446,17.44,59.234 c1.181,0.111,2.222-0.225,3.149-1.034c4.119-3.636,4.785-17.926,5.243-47.427l0.004-0.132c0.218-13.764,0.576-36.801,2.588-38.505 l0.705-0.397l0.336-0.73c1.117-2.416,2.777-2.92,3.976-2.92c0.19,0,0.372,0.011,0.562,0.039c2.734,0.293,5.494,2.552,6.02,4.939 c0.408,1.85,0.483,11.295,0.565,22.221v0.211c0.383,51.242,1.764,63.02,7.372,63.02c6.324,0,9.649-12.637,16.438-50.623 c1.754-9.82,4.151-23.212,5.171-25.206c3.296-1.65,6.249-2.054,7.974-1.099c2.165,1.199,2.895,4.452,3.114,6.939 c0.007,1.099-1.568,12.751-2.831,22.124l-0.072,0.476c-5.211,38.516-6.914,52.623-6.066,55.057l0.512,1.485l1.564,0.183 c0.655,0.075,15.958,2.011,14.208,20.686l-0.007,0.329l0.018,0.19c0.054,0.39,4.567,39.75-9.717,67.118l-3.797,12.802l4.785,1.417 l3.618-12.354C168.576,167.275,164.671,129.801,164.174,125.689z"/> </g> </g>

<g id="SVGRepo_iconCarrier"> <g> <path style="fill:#010002; stroke:#000000; stroke-width:12" d="M164.174,125.689c1.696-19.039-11.85-24.25-16.524-25.467c0.276-7.276,4.015-34.922,6.267-51.532 c2.419-17.876,3.021-22.525,2.931-23.577c-0.476-5.468-2.384-9.169-5.672-10.987c-3.339-1.84-7.852-1.442-12.87,1.127 c-2.494,1.281-3.593,6.238-7.623,28.763c-2.205,12.394-7.297,40.874-10.98,45.806c-2.523-7.04-2.781-40.913-2.91-57.466 c-0.1-13.46-0.179-21.19-0.684-23.467c-0.977-4.427-5.526-8.303-10.35-8.822c-3.905-0.465-7.397,1.485-9.334,5.193 c-3.418,3.257-3.93,14.845-4.363,42.417c-0.204,13.174-0.637,40.309-3.135,43.394c-2.09-1.145-5.98-11.878-12.791-54.95 c-2.011-12.737-2.609-16.119-3.378-17.443c-1.367-4.631-6.818-11.091-12.608-11.091c-0.125,0-0.254,0.004-0.39,0.011 c-3.837,0.236-8.672,3.421-9.906,17.329c4.066,53.568,8.013,83.981,8.815,89.954c-1.249,1.474-3.407,3.765-6.678,6.496 c-0.125,0.104-0.2,0.168-0.29,0.251c-13.718,15.164-8.074,25.682-7.831,26.118c10.926,19.115,33.799,46.343,34.021,46.579 c3.003,2.577,4.61,4.975,4.653,6.936c0.029,1.17-0.558,1.875-0.752,2.083l-0.451,0.54l3.203,3.654l0.619-0.533 c0.24-0.218,2.384-2.197,2.362-5.715c-0.014-3.475-2.147-7.108-6.116-10.472c-0.938-1.124-23.051-27.779-33.19-45.523 c-0.039-0.079-3.994-7.967,6.904-20.056c1.113-0.902,4.978-4.126,8.117-8.077l0.673-0.841l-0.161-1.084 c-0.039-0.311-4.452-31.741-8.933-90.28c0.684-7.487,2.688-12.229,5.222-12.386l0.115-0.004c2.885,0,7.24,4.753,7.906,7.852 l0.361,1.668l0.276,0.043c0.583,2.545,1.564,8.75,2.512,14.759c6.374,40.323,10.4,58.446,17.44,59.234 c1.181,0.111,2.222-0.225,3.149-1.034c4.119-3.636,4.785-17.926,5.243-47.427l0.004-0.132c0.218-13.764,0.576-36.801,2.588-38.505 l0.705-0.397l0.336-0.73c1.117-2.416,2.777-2.92,3.976-2.92c0.19,0,0.372,0.011,0.562,0.039c2.734,0.293,5.494,2.552,6.02,4.939 c0.408,1.85,0.483,11.295,0.565,22.221v0.211c0.383,51.242,1.764,63.02,7.372,63.02c6.324,0,9.649-12.637,16.438-50.623 c1.754-9.82,4.151-23.212,5.171-25.206c3.296-1.65,6.249-2.054,7.974-1.099c2.165,1.199,2.895,4.452,3.114,6.939 c0.007,1.099-1.568,12.751-2.831,22.124l-0.072,0.476c-5.211,38.516-6.914,52.623-6.066,55.057l0.512,1.485l1.564,0.183 c0.655,0.075,15.958,2.011,14.208,20.686l-0.007,0.329l0.018,0.19c0.054,0.39,4.567,39.75-9.717,67.118l-3.797,12.802l4.785,1.417 l3.618-12.354C168.576,167.275,164.671,129.801,164.174,125.689z"/> </g> </g>

</svg>