<!DOCTYPE svg PUBLIC "-//W3C//DTD SVG 1.1//EN" "http://www.w3.org/Graphics/SVG/1.1/DTD/svg11.dtd">

<!-- Uploaded to: SVG Repo, www.svgrepo.com, Transformed by: SVG Repo Mixer Tools -->
<svg fill="#f8f7f7" version="1.1" id="Capa_1" xmlns="http://www.w3.org/2000/svg" xmlns:xlink="http://www.w3.org/1999/xlink" width="800px" height="800px" viewBox="-34.47 -34.47 398.54 398.54" xml:space="preserve" stroke="#f8f7f7" stroke-width="0.0034959800000000005">

<g id="SVGRepo_bgCarrier" stroke-width="0"/>

<g id="SVGRepo_tracerCarrier" stroke-linecap="round" stroke-linejoin="round" stroke="#000000" stroke-width="52.650956"> <g> <g> <path d="M295.486,92.256c-1.729-7.944-8.311-13.475-13.919-14.82c-4.059-0.985-7.979,0.138-10.304,2.955 c-10.274,12.526-20.092,35.831-28.745,56.403c-4.54,10.779-10.112,23.983-13.69,29.646c-1.22-16.261,9.289-77.372,13.354-100.977 l0.029-0.21c3.093-17.918,3.693-21.557,3.567-23.022c-0.793-9.175-3.987-15.373-9.506-18.422 c-5.59-3.087-13.156-2.426-21.569,1.897c-4.149,2.138-6.005,10.49-12.784,48.464c-3.452,19.33-12.454,69.686-18.656,77.42 c-4.359-11.458-4.801-71.157-4.999-97.091c-0.172-22.746-0.307-35.807-1.156-39.602c-1.636-7.41-9.248-13.907-17.333-14.778 c-6.704-0.786-12.337,2.378-15.63,8.719c-5.689,5.506-6.599,26.006-7.305,71.235c-0.352,22.398-1.066,68.617-5.393,73.486 c-3.567-1.795-10.172-19.755-21.701-92.744c-3.462-21.888-4.408-27.226-5.693-29.406c-2.281-7.764-11.4-18.608-21.067-18.608 c-0.234,0-0.472,0.006-0.718,0.03c-6.44,0.384-14.525,5.729-16.585,29.063c6.857,90.108,13.517,141.635,14.886,151.705 c-5.359,6.666-11.749,14.172-11.788,14.226c-23.13,25.55-12.247,44.489-11.775,45.276c18.381,32.168,55.526,73.865,55.902,74.249 c5.086,4.365,7.815,8.448,7.887,11.788c0.045,2.264-1.252,3.506-1.279,3.53l-0.892,0.889l5.362,6.041l111.074-0.03l6.071-21.148 c24.061-45.932,17.864-109.048,17.023-116.613c0.906-4.09,8.803-27.851,15.156-46.976l0.126-0.415 C292.833,105.965,296.123,95.168,295.486,92.256z"/> </g> </g> </g>

<g id="SVGRepo_iconCarrier"> <g> <g> <path d="M295.486,92.256c-1.729-7.944-8.311-13.475-13.919-14.82c-4.059-0.985-7.979,0.138-10.304,2.955 c-10.274,12.526-20.092,35.831-28.745,56.403c-4.54,10.779-10.112,23.983-13.69,29.646c-1.22-16.261,9.289-77.372,13.354-100.977 l0.029-0.21c3.093-17.918,3.693-21.557,3.567-23.022c-0.793-9.175-3.987-15.373-9.506-18.422 c-5.59-3.087-13.156-2.426-21.569,1.897c-4.149,2.138-6.005,10.49-12.784,48.464c-3.452,19.33-12.454,69.686-18.656,77.42 c-4.359-11.458-4.801-71.157-4.999-97.091c-0.172-22.746-0.307-35.807-1.156-39.602c-1.636-7.41-9.248-13.907-17.333-14.778 c-6.704-0.786-12.337,2.378-15.63,8.719c-5.689,5.506-6.599,26.006-7.305,71.235c-0.352,22.398-1.066,68.617-5.393,73.486 c-3.567-1.795-10.172-19.755-21.701-92.744c-3.462-21.888-4.408-27.226-5.693-29.406c-2.281-7.764-11.4-18.608-21.067-18.608 c-0.234,0-0.472,0.006-0.718,0.03c-6.44,0.384-14.525,5.729-16.585,29.063c6.857,90.108,13.517,141.635,14.886,151.705 c-5.359,6.666-11.749,14.172-11.788,14.226c-23.13,25.55-12.247,44.489-11.775,45.276c18.381,32.168,55.526,73.865,55.902,74.249 c5.086,4.365,7.815,8.448,7.887,11.788c0.045,2.264-1.252,3.506-1.279,3.53l-0.892,0.889l5.362,6.041l111.074-0.03l6.071-21.148 c24.061-45.932,17.864-109.048,17.023-116.613c0.906-4.09,8.803-27.851,15.156-46.976l0.126-0.415 C292.833,105.965,296.123,95.168,295.486,92.256z"/> </g> </g> </g>

</svg>